<mxfile host="app.diagrams.net" agent="Mozilla/5.0 (Windows NT 10.0; Win64; x64) AppleWebKit/537.36 (KHTML, like Gecko) Chrome/131.0.0.0 Safari/537.36" version="25.0.1">
  <diagram name="StrÃ¡nka-1" id="uiwxd_N7wb5uGFvbHICL">
    <mxGraphModel dx="3776" dy="2231" grid="1" gridSize="10" guides="1" tooltips="1" connect="1" arrows="1" fold="1" page="1" pageScale="1" pageWidth="1169" pageHeight="827" math="0" shadow="0">
      <root>
        <mxCell id="0" />
        <mxCell id="1" parent="0" />
        <mxCell id="lrRXcVhisEiBtLIxsdMu-1" value="" style="whiteSpace=wrap;html=1;" parent="1" vertex="1">
          <mxGeometry x="-230" y="195" width="10" height="40" as="geometry" />
        </mxCell>
        <mxCell id="lrRXcVhisEiBtLIxsdMu-2" value="" style="endArrow=classic;html=1;rounded=0;exitX=1;exitY=0.5;exitDx=0;exitDy=0;" parent="1" source="lrRXcVhisEiBtLIxsdMu-1" edge="1">
          <mxGeometry width="50" height="50" relative="1" as="geometry">
            <mxPoint x="60" y="275" as="sourcePoint" />
            <mxPoint x="-190" y="215" as="targetPoint" />
          </mxGeometry>
        </mxCell>
        <mxCell id="lrRXcVhisEiBtLIxsdMu-3" value="" style="ellipse;whiteSpace=wrap;html=1;aspect=fixed;" parent="1" vertex="1">
          <mxGeometry x="-190" y="195" width="40" height="40" as="geometry" />
        </mxCell>
        <mxCell id="lrRXcVhisEiBtLIxsdMu-4" value="" style="endArrow=classic;html=1;rounded=0;exitX=1;exitY=0.5;exitDx=0;exitDy=0;" parent="1" source="lrRXcVhisEiBtLIxsdMu-3" edge="1">
          <mxGeometry width="50" height="50" relative="1" as="geometry">
            <mxPoint x="-110" y="265" as="sourcePoint" />
            <mxPoint x="-120" y="215" as="targetPoint" />
          </mxGeometry>
        </mxCell>
        <mxCell id="lrRXcVhisEiBtLIxsdMu-5" value="" style="whiteSpace=wrap;html=1;" parent="1" vertex="1">
          <mxGeometry x="-120" y="195" width="10" height="40" as="geometry" />
        </mxCell>
        <mxCell id="lrRXcVhisEiBtLIxsdMu-6" value="" style="whiteSpace=wrap;html=1;" parent="1" vertex="1">
          <mxGeometry x="-10" y="45" width="10" height="40" as="geometry" />
        </mxCell>
        <mxCell id="lrRXcVhisEiBtLIxsdMu-7" value="" style="whiteSpace=wrap;html=1;" parent="1" vertex="1">
          <mxGeometry x="-10" y="195" width="10" height="40" as="geometry" />
        </mxCell>
        <mxCell id="lrRXcVhisEiBtLIxsdMu-8" value="" style="whiteSpace=wrap;html=1;" parent="1" vertex="1">
          <mxGeometry x="-80" y="400" width="10" height="40" as="geometry" />
        </mxCell>
        <mxCell id="lrRXcVhisEiBtLIxsdMu-9" value="" style="endArrow=classic;html=1;rounded=0;exitX=1;exitY=0.5;exitDx=0;exitDy=0;" parent="1" edge="1">
          <mxGeometry width="50" height="50" relative="1" as="geometry">
            <mxPoint x="-110" y="215" as="sourcePoint" />
            <mxPoint x="-80" y="215" as="targetPoint" />
          </mxGeometry>
        </mxCell>
        <mxCell id="lrRXcVhisEiBtLIxsdMu-10" value="" style="ellipse;whiteSpace=wrap;html=1;aspect=fixed;" parent="1" vertex="1">
          <mxGeometry x="-80" y="195" width="40" height="40" as="geometry" />
        </mxCell>
        <mxCell id="lrRXcVhisEiBtLIxsdMu-11" value="" style="endArrow=classic;html=1;rounded=0;exitX=1;exitY=0.5;exitDx=0;exitDy=0;" parent="1" edge="1">
          <mxGeometry width="50" height="50" relative="1" as="geometry">
            <mxPoint x="-40" y="214.81" as="sourcePoint" />
            <mxPoint x="-10" y="214.81" as="targetPoint" />
          </mxGeometry>
        </mxCell>
        <mxCell id="lrRXcVhisEiBtLIxsdMu-12" value="" style="endArrow=classic;html=1;rounded=0;entryX=0;entryY=0.5;entryDx=0;entryDy=0;exitX=0.5;exitY=0;exitDx=0;exitDy=0;" parent="1" source="lrRXcVhisEiBtLIxsdMu-10" target="lrRXcVhisEiBtLIxsdMu-6" edge="1">
          <mxGeometry width="50" height="50" relative="1" as="geometry">
            <mxPoint x="-70" y="245" as="sourcePoint" />
            <mxPoint x="-20" y="195" as="targetPoint" />
          </mxGeometry>
        </mxCell>
        <mxCell id="lrRXcVhisEiBtLIxsdMu-14" value="30%" style="text;html=1;align=center;verticalAlign=middle;whiteSpace=wrap;rounded=0;" parent="1" vertex="1">
          <mxGeometry x="-35" y="80" width="60" height="30" as="geometry" />
        </mxCell>
        <mxCell id="lrRXcVhisEiBtLIxsdMu-15" value="50%" style="text;html=1;align=center;verticalAlign=middle;whiteSpace=wrap;rounded=0;" parent="1" vertex="1">
          <mxGeometry x="-35" y="230" width="60" height="30" as="geometry" />
        </mxCell>
        <mxCell id="lrRXcVhisEiBtLIxsdMu-16" value="20%" style="text;html=1;align=center;verticalAlign=middle;whiteSpace=wrap;rounded=0;" parent="1" vertex="1">
          <mxGeometry x="-105" y="435" width="60" height="30" as="geometry" />
        </mxCell>
        <mxCell id="lrRXcVhisEiBtLIxsdMu-17" value="" style="whiteSpace=wrap;html=1;" parent="1" vertex="1">
          <mxGeometry x="370" y="10" width="10" height="40" as="geometry" />
        </mxCell>
        <mxCell id="lrRXcVhisEiBtLIxsdMu-18" value="" style="ellipse;whiteSpace=wrap;html=1;aspect=fixed;" parent="1" vertex="1">
          <mxGeometry x="80" y="10" width="40" height="40" as="geometry" />
        </mxCell>
        <mxCell id="lrRXcVhisEiBtLIxsdMu-22" value="" style="endArrow=classic;html=1;rounded=0;exitX=1;exitY=0.5;exitDx=0;exitDy=0;" parent="1" source="lrRXcVhisEiBtLIxsdMu-18" edge="1">
          <mxGeometry width="50" height="50" relative="1" as="geometry">
            <mxPoint x="340" y="29.72" as="sourcePoint" />
            <mxPoint x="370" y="29.72" as="targetPoint" />
          </mxGeometry>
        </mxCell>
        <mxCell id="lrRXcVhisEiBtLIxsdMu-23" value="" style="whiteSpace=wrap;html=1;" parent="1" vertex="1">
          <mxGeometry x="370" y="200" width="10" height="40" as="geometry" />
        </mxCell>
        <mxCell id="lrRXcVhisEiBtLIxsdMu-24" value="" style="ellipse;whiteSpace=wrap;html=1;aspect=fixed;" parent="1" vertex="1">
          <mxGeometry x="60" y="195" width="40" height="40" as="geometry" />
        </mxCell>
        <mxCell id="lrRXcVhisEiBtLIxsdMu-25" value="" style="endArrow=classic;html=1;rounded=0;exitX=1;exitY=0.5;exitDx=0;exitDy=0;" parent="1" source="lrRXcVhisEiBtLIxsdMu-24" edge="1">
          <mxGeometry width="50" height="50" relative="1" as="geometry">
            <mxPoint x="110" y="260" as="sourcePoint" />
            <mxPoint x="370" y="219.72" as="targetPoint" />
          </mxGeometry>
        </mxCell>
        <mxCell id="lrRXcVhisEiBtLIxsdMu-26" value="" style="whiteSpace=wrap;html=1;" parent="1" vertex="1">
          <mxGeometry x="400" y="400" width="10" height="40" as="geometry" />
        </mxCell>
        <mxCell id="lrRXcVhisEiBtLIxsdMu-27" value="" style="ellipse;whiteSpace=wrap;html=1;aspect=fixed;" parent="1" vertex="1">
          <mxGeometry x="10" y="410" width="40" height="40" as="geometry" />
        </mxCell>
        <mxCell id="lrRXcVhisEiBtLIxsdMu-28" value="" style="endArrow=classic;html=1;rounded=0;exitX=1;exitY=0.5;exitDx=0;exitDy=0;entryX=0;entryY=0.5;entryDx=0;entryDy=0;" parent="1" source="lrRXcVhisEiBtLIxsdMu-27" target="lrRXcVhisEiBtLIxsdMu-26" edge="1">
          <mxGeometry width="50" height="50" relative="1" as="geometry">
            <mxPoint x="440" y="489.72" as="sourcePoint" />
            <mxPoint x="470" y="489.72" as="targetPoint" />
          </mxGeometry>
        </mxCell>
        <mxCell id="lrRXcVhisEiBtLIxsdMu-29" value="" style="endArrow=classic;html=1;rounded=0;exitX=1;exitY=0.5;exitDx=0;exitDy=0;entryX=0;entryY=0.5;entryDx=0;entryDy=0;" parent="1" source="lrRXcVhisEiBtLIxsdMu-8" target="lrRXcVhisEiBtLIxsdMu-27" edge="1">
          <mxGeometry width="50" height="50" relative="1" as="geometry">
            <mxPoint x="270" y="300" as="sourcePoint" />
            <mxPoint x="300" y="340" as="targetPoint" />
          </mxGeometry>
        </mxCell>
        <mxCell id="lrRXcVhisEiBtLIxsdMu-30" value="" style="endArrow=classic;html=1;rounded=0;exitX=1;exitY=0.5;exitDx=0;exitDy=0;entryX=0;entryY=0.5;entryDx=0;entryDy=0;" parent="1" source="lrRXcVhisEiBtLIxsdMu-7" target="lrRXcVhisEiBtLIxsdMu-24" edge="1">
          <mxGeometry width="50" height="50" relative="1" as="geometry">
            <mxPoint x="330" y="260" as="sourcePoint" />
            <mxPoint x="380" y="210" as="targetPoint" />
          </mxGeometry>
        </mxCell>
        <mxCell id="lrRXcVhisEiBtLIxsdMu-31" value="" style="ellipse;whiteSpace=wrap;html=1;aspect=fixed;" parent="1" vertex="1">
          <mxGeometry x="360" y="-70" width="40" height="40" as="geometry" />
        </mxCell>
        <mxCell id="lrRXcVhisEiBtLIxsdMu-32" value="x" style="text;html=1;align=center;verticalAlign=middle;whiteSpace=wrap;rounded=0;" parent="1" vertex="1">
          <mxGeometry x="360" y="-65" width="40" height="30" as="geometry" />
        </mxCell>
        <mxCell id="lrRXcVhisEiBtLIxsdMu-33" value="" style="curved=1;endArrow=classic;html=1;rounded=0;" parent="1" source="lrRXcVhisEiBtLIxsdMu-32" edge="1">
          <mxGeometry width="50" height="50" relative="1" as="geometry">
            <mxPoint x="320" y="70" as="sourcePoint" />
            <mxPoint x="370" y="20" as="targetPoint" />
            <Array as="points">
              <mxPoint x="340" y="-50" />
              <mxPoint x="330" />
              <mxPoint x="350" y="20" />
            </Array>
          </mxGeometry>
        </mxCell>
        <mxCell id="lrRXcVhisEiBtLIxsdMu-35" value="" style="endArrow=classic;html=1;rounded=0;exitX=1;exitY=0.5;exitDx=0;exitDy=0;" parent="1" edge="1">
          <mxGeometry width="50" height="50" relative="1" as="geometry">
            <mxPoint x="380" y="29.769999999999996" as="sourcePoint" />
            <mxPoint x="410" y="29.769999999999996" as="targetPoint" />
          </mxGeometry>
        </mxCell>
        <mxCell id="lrRXcVhisEiBtLIxsdMu-36" value="" style="ellipse;whiteSpace=wrap;html=1;aspect=fixed;" parent="1" vertex="1">
          <mxGeometry x="410" y="10" width="40" height="40" as="geometry" />
        </mxCell>
        <mxCell id="lrRXcVhisEiBtLIxsdMu-37" value="" style="whiteSpace=wrap;html=1;" parent="1" vertex="1">
          <mxGeometry x="480" y="10" width="10" height="40" as="geometry" />
        </mxCell>
        <mxCell id="lrRXcVhisEiBtLIxsdMu-38" value="" style="endArrow=classic;html=1;rounded=0;exitX=1;exitY=0.5;exitDx=0;exitDy=0;" parent="1" edge="1">
          <mxGeometry width="50" height="50" relative="1" as="geometry">
            <mxPoint x="450" y="29.72" as="sourcePoint" />
            <mxPoint x="480" y="29.72" as="targetPoint" />
          </mxGeometry>
        </mxCell>
        <mxCell id="lrRXcVhisEiBtLIxsdMu-39" value="1-2 min." style="text;html=1;align=center;verticalAlign=middle;whiteSpace=wrap;rounded=0;" parent="1" vertex="1">
          <mxGeometry x="455" y="50" width="60" height="30" as="geometry" />
        </mxCell>
        <mxCell id="lrRXcVhisEiBtLIxsdMu-40" value="" style="endArrow=classic;html=1;rounded=0;exitX=1;exitY=0.5;exitDx=0;exitDy=0;" parent="1" edge="1">
          <mxGeometry width="50" height="50" relative="1" as="geometry">
            <mxPoint x="490" y="29.769999999999996" as="sourcePoint" />
            <mxPoint x="520" y="29.769999999999996" as="targetPoint" />
          </mxGeometry>
        </mxCell>
        <mxCell id="lrRXcVhisEiBtLIxsdMu-41" value="" style="ellipse;whiteSpace=wrap;html=1;aspect=fixed;" parent="1" vertex="1">
          <mxGeometry x="520" y="10" width="40" height="40" as="geometry" />
        </mxCell>
        <mxCell id="lrRXcVhisEiBtLIxsdMu-42" value="" style="whiteSpace=wrap;html=1;" parent="1" vertex="1">
          <mxGeometry x="590" y="-30" width="10" height="40" as="geometry" />
        </mxCell>
        <mxCell id="lrRXcVhisEiBtLIxsdMu-43" value="" style="whiteSpace=wrap;html=1;" parent="1" vertex="1">
          <mxGeometry x="590" y="50" width="10" height="40" as="geometry" />
        </mxCell>
        <mxCell id="lrRXcVhisEiBtLIxsdMu-44" value="" style="endArrow=classic;html=1;rounded=0;entryX=0;entryY=0.5;entryDx=0;entryDy=0;exitX=1;exitY=0.5;exitDx=0;exitDy=0;" parent="1" source="lrRXcVhisEiBtLIxsdMu-41" target="lrRXcVhisEiBtLIxsdMu-42" edge="1">
          <mxGeometry width="50" height="50" relative="1" as="geometry">
            <mxPoint x="520" y="90" as="sourcePoint" />
            <mxPoint x="570" y="40" as="targetPoint" />
          </mxGeometry>
        </mxCell>
        <mxCell id="lrRXcVhisEiBtLIxsdMu-46" value="" style="endArrow=classic;html=1;rounded=0;entryX=0;entryY=0.5;entryDx=0;entryDy=0;exitX=1;exitY=0.5;exitDx=0;exitDy=0;" parent="1" source="lrRXcVhisEiBtLIxsdMu-41" target="lrRXcVhisEiBtLIxsdMu-43" edge="1">
          <mxGeometry width="50" height="50" relative="1" as="geometry">
            <mxPoint x="520" y="90" as="sourcePoint" />
            <mxPoint x="570" y="40" as="targetPoint" />
          </mxGeometry>
        </mxCell>
        <mxCell id="lrRXcVhisEiBtLIxsdMu-47" value="70%" style="text;html=1;align=center;verticalAlign=middle;whiteSpace=wrap;rounded=0;" parent="1" vertex="1">
          <mxGeometry x="565" y="10" width="60" height="30" as="geometry" />
        </mxCell>
        <mxCell id="lrRXcVhisEiBtLIxsdMu-48" value="30%" style="text;html=1;align=center;verticalAlign=middle;whiteSpace=wrap;rounded=0;" parent="1" vertex="1">
          <mxGeometry x="565" y="90" width="60" height="30" as="geometry" />
        </mxCell>
        <mxCell id="lrRXcVhisEiBtLIxsdMu-51" value="" style="endArrow=classic;html=1;rounded=0;exitX=1;exitY=0.5;exitDx=0;exitDy=0;" parent="1" edge="1">
          <mxGeometry width="50" height="50" relative="1" as="geometry">
            <mxPoint x="600" y="-10.230000000000004" as="sourcePoint" />
            <mxPoint x="630" y="-10.230000000000004" as="targetPoint" />
          </mxGeometry>
        </mxCell>
        <mxCell id="lrRXcVhisEiBtLIxsdMu-52" value="" style="ellipse;whiteSpace=wrap;html=1;aspect=fixed;" parent="1" vertex="1">
          <mxGeometry x="630" y="-30" width="40" height="40" as="geometry" />
        </mxCell>
        <mxCell id="lrRXcVhisEiBtLIxsdMu-53" value="" style="whiteSpace=wrap;html=1;" parent="1" vertex="1">
          <mxGeometry x="700" y="-30" width="10" height="40" as="geometry" />
        </mxCell>
        <mxCell id="lrRXcVhisEiBtLIxsdMu-54" value="" style="endArrow=classic;html=1;rounded=0;exitX=1;exitY=0.5;exitDx=0;exitDy=0;" parent="1" edge="1">
          <mxGeometry width="50" height="50" relative="1" as="geometry">
            <mxPoint x="670" y="-10.280000000000001" as="sourcePoint" />
            <mxPoint x="700" y="-10.280000000000001" as="targetPoint" />
          </mxGeometry>
        </mxCell>
        <mxCell id="lrRXcVhisEiBtLIxsdMu-55" value="5-10 min." style="text;html=1;align=center;verticalAlign=middle;whiteSpace=wrap;rounded=0;" parent="1" vertex="1">
          <mxGeometry x="675" y="10" width="60" height="30" as="geometry" />
        </mxCell>
        <mxCell id="lrRXcVhisEiBtLIxsdMu-56" value="" style="endArrow=classic;html=1;rounded=0;exitX=1;exitY=0.5;exitDx=0;exitDy=0;" parent="1" edge="1">
          <mxGeometry width="50" height="50" relative="1" as="geometry">
            <mxPoint x="710" y="-10.230000000000004" as="sourcePoint" />
            <mxPoint x="740" y="-10.230000000000004" as="targetPoint" />
          </mxGeometry>
        </mxCell>
        <mxCell id="lrRXcVhisEiBtLIxsdMu-57" value="" style="ellipse;whiteSpace=wrap;html=1;aspect=fixed;" parent="1" vertex="1">
          <mxGeometry x="740" y="-30" width="40" height="40" as="geometry" />
        </mxCell>
        <mxCell id="lrRXcVhisEiBtLIxsdMu-58" value="" style="whiteSpace=wrap;html=1;fillColor=#000000;" parent="1" vertex="1">
          <mxGeometry x="810" y="-30" width="10" height="40" as="geometry" />
        </mxCell>
        <mxCell id="lrRXcVhisEiBtLIxsdMu-59" value="" style="endArrow=classic;html=1;rounded=0;exitX=1;exitY=0.5;exitDx=0;exitDy=0;" parent="1" edge="1">
          <mxGeometry width="50" height="50" relative="1" as="geometry">
            <mxPoint x="780" y="-10.280000000000001" as="sourcePoint" />
            <mxPoint x="810" y="-10.280000000000001" as="targetPoint" />
          </mxGeometry>
        </mxCell>
        <mxCell id="lrRXcVhisEiBtLIxsdMu-60" value="" style="curved=1;endArrow=classic;html=1;rounded=0;exitX=1;exitY=0.25;exitDx=0;exitDy=0;entryX=1;entryY=0.5;entryDx=0;entryDy=0;" parent="1" source="lrRXcVhisEiBtLIxsdMu-53" target="lrRXcVhisEiBtLIxsdMu-32" edge="1">
          <mxGeometry width="50" height="50" relative="1" as="geometry">
            <mxPoint x="520" y="90" as="sourcePoint" />
            <mxPoint x="570" y="40" as="targetPoint" />
            <Array as="points">
              <mxPoint x="750" y="-40" />
              <mxPoint x="680" y="-50" />
              <mxPoint x="640" y="-50" />
              <mxPoint x="530" y="-50" />
            </Array>
          </mxGeometry>
        </mxCell>
        <mxCell id="lrRXcVhisEiBtLIxsdMu-61" value="" style="curved=1;endArrow=classic;html=1;rounded=0;exitX=1;exitY=0.75;exitDx=0;exitDy=0;entryX=0.5;entryY=1;entryDx=0;entryDy=0;" parent="1" source="lrRXcVhisEiBtLIxsdMu-43" target="lrRXcVhisEiBtLIxsdMu-31" edge="1">
          <mxGeometry width="50" height="50" relative="1" as="geometry">
            <mxPoint x="520" y="160" as="sourcePoint" />
            <mxPoint x="570" y="110" as="targetPoint" />
            <Array as="points">
              <mxPoint x="640" y="100" />
              <mxPoint x="600" y="130" />
              <mxPoint x="390" y="80" />
            </Array>
          </mxGeometry>
        </mxCell>
        <mxCell id="lrRXcVhisEiBtLIxsdMu-62" value="" style="curved=1;endArrow=classic;html=1;rounded=0;exitX=1;exitY=0.5;exitDx=0;exitDy=0;entryX=1;entryY=0;entryDx=0;entryDy=0;" parent="1" source="lrRXcVhisEiBtLIxsdMu-43" target="6kxqg8SRKIHMtfkFayjp-364" edge="1">
          <mxGeometry width="50" height="50" relative="1" as="geometry">
            <mxPoint x="520" y="210" as="sourcePoint" />
            <mxPoint x="330" y="190" as="targetPoint" />
            <Array as="points">
              <mxPoint x="700" y="150" />
              <mxPoint x="430" y="100" />
            </Array>
          </mxGeometry>
        </mxCell>
        <mxCell id="lrRXcVhisEiBtLIxsdMu-63" value="" style="ellipse;whiteSpace=wrap;html=1;aspect=fixed;" parent="1" vertex="1">
          <mxGeometry x="360" y="280" width="40" height="40" as="geometry" />
        </mxCell>
        <mxCell id="lrRXcVhisEiBtLIxsdMu-67" value="" style="endArrow=classic;html=1;rounded=0;exitX=1;exitY=0.5;exitDx=0;exitDy=0;" parent="1" edge="1">
          <mxGeometry width="50" height="50" relative="1" as="geometry">
            <mxPoint x="380" y="219.76999999999998" as="sourcePoint" />
            <mxPoint x="410" y="219.76999999999998" as="targetPoint" />
          </mxGeometry>
        </mxCell>
        <mxCell id="lrRXcVhisEiBtLIxsdMu-68" value="" style="ellipse;whiteSpace=wrap;html=1;aspect=fixed;" parent="1" vertex="1">
          <mxGeometry x="410" y="200" width="40" height="40" as="geometry" />
        </mxCell>
        <mxCell id="lrRXcVhisEiBtLIxsdMu-69" value="" style="whiteSpace=wrap;html=1;" parent="1" vertex="1">
          <mxGeometry x="480" y="200" width="10" height="40" as="geometry" />
        </mxCell>
        <mxCell id="lrRXcVhisEiBtLIxsdMu-70" value="" style="endArrow=classic;html=1;rounded=0;exitX=1;exitY=0.5;exitDx=0;exitDy=0;" parent="1" edge="1">
          <mxGeometry width="50" height="50" relative="1" as="geometry">
            <mxPoint x="450" y="219.72" as="sourcePoint" />
            <mxPoint x="480" y="219.72" as="targetPoint" />
          </mxGeometry>
        </mxCell>
        <mxCell id="lrRXcVhisEiBtLIxsdMu-71" value="" style="endArrow=classic;html=1;rounded=0;exitX=1;exitY=0.5;exitDx=0;exitDy=0;" parent="1" edge="1">
          <mxGeometry width="50" height="50" relative="1" as="geometry">
            <mxPoint x="490" y="219.76999999999998" as="sourcePoint" />
            <mxPoint x="520" y="219.76999999999998" as="targetPoint" />
          </mxGeometry>
        </mxCell>
        <mxCell id="lrRXcVhisEiBtLIxsdMu-72" value="" style="ellipse;whiteSpace=wrap;html=1;aspect=fixed;" parent="1" vertex="1">
          <mxGeometry x="520" y="200" width="40" height="40" as="geometry" />
        </mxCell>
        <mxCell id="lrRXcVhisEiBtLIxsdMu-73" value="" style="whiteSpace=wrap;html=1;" parent="1" vertex="1">
          <mxGeometry x="590" y="200" width="10" height="40" as="geometry" />
        </mxCell>
        <mxCell id="lrRXcVhisEiBtLIxsdMu-74" value="" style="endArrow=classic;html=1;rounded=0;exitX=1;exitY=0.5;exitDx=0;exitDy=0;" parent="1" edge="1">
          <mxGeometry width="50" height="50" relative="1" as="geometry">
            <mxPoint x="560" y="219.72" as="sourcePoint" />
            <mxPoint x="590" y="219.72" as="targetPoint" />
          </mxGeometry>
        </mxCell>
        <mxCell id="lrRXcVhisEiBtLIxsdMu-75" value="5-10 min" style="text;html=1;align=center;verticalAlign=middle;whiteSpace=wrap;rounded=0;" parent="1" vertex="1">
          <mxGeometry x="455" y="240" width="60" height="30" as="geometry" />
        </mxCell>
        <mxCell id="lrRXcVhisEiBtLIxsdMu-76" value="80%" style="text;html=1;align=center;verticalAlign=middle;whiteSpace=wrap;rounded=0;" parent="1" vertex="1">
          <mxGeometry x="565" y="240" width="60" height="30" as="geometry" />
        </mxCell>
        <mxCell id="lrRXcVhisEiBtLIxsdMu-77" value="" style="whiteSpace=wrap;html=1;" parent="1" vertex="1">
          <mxGeometry x="590" y="280" width="10" height="40" as="geometry" />
        </mxCell>
        <mxCell id="lrRXcVhisEiBtLIxsdMu-78" value="20%" style="text;html=1;align=center;verticalAlign=middle;whiteSpace=wrap;rounded=0;" parent="1" vertex="1">
          <mxGeometry x="565" y="320" width="60" height="30" as="geometry" />
        </mxCell>
        <mxCell id="lrRXcVhisEiBtLIxsdMu-79" value="" style="endArrow=classic;html=1;rounded=0;exitX=1;exitY=0.5;exitDx=0;exitDy=0;" parent="1" edge="1">
          <mxGeometry width="50" height="50" relative="1" as="geometry">
            <mxPoint x="600" y="219.77" as="sourcePoint" />
            <mxPoint x="630" y="219.77" as="targetPoint" />
          </mxGeometry>
        </mxCell>
        <mxCell id="lrRXcVhisEiBtLIxsdMu-82" value="" style="ellipse;whiteSpace=wrap;html=1;aspect=fixed;" parent="1" vertex="1">
          <mxGeometry x="630" y="200" width="40" height="40" as="geometry" />
        </mxCell>
        <mxCell id="lrRXcVhisEiBtLIxsdMu-87" value="" style="curved=1;endArrow=classic;html=1;rounded=0;exitX=1;exitY=0.5;exitDx=0;exitDy=0;entryX=1;entryY=0.5;entryDx=0;entryDy=0;" parent="1" target="lrRXcVhisEiBtLIxsdMu-63" edge="1">
          <mxGeometry width="50" height="50" relative="1" as="geometry">
            <mxPoint x="600" y="305" as="sourcePoint" />
            <mxPoint x="320" y="365" as="targetPoint" />
            <Array as="points">
              <mxPoint x="650" y="350" />
              <mxPoint x="530" y="350" />
              <mxPoint x="450" y="320" />
            </Array>
          </mxGeometry>
        </mxCell>
        <mxCell id="lrRXcVhisEiBtLIxsdMu-88" value="" style="curved=1;endArrow=classic;html=1;rounded=0;exitX=1;exitY=0.5;exitDx=0;exitDy=0;entryX=0.93;entryY=0.785;entryDx=0;entryDy=0;entryPerimeter=0;" parent="1" source="6kxqg8SRKIHMtfkFayjp-333" target="lrRXcVhisEiBtLIxsdMu-63" edge="1">
          <mxGeometry width="50" height="50" relative="1" as="geometry">
            <mxPoint x="610.9099999999999" y="227.24" as="sourcePoint" />
            <mxPoint x="370" y="360" as="targetPoint" />
            <Array as="points">
              <mxPoint x="780" y="340" />
              <mxPoint x="580" y="360" />
              <mxPoint x="470" y="340" />
            </Array>
          </mxGeometry>
        </mxCell>
        <mxCell id="lrRXcVhisEiBtLIxsdMu-89" value="" style="curved=1;endArrow=classic;html=1;rounded=0;exitX=0;exitY=0;exitDx=0;exitDy=0;" parent="1" source="lrRXcVhisEiBtLIxsdMu-63" edge="1">
          <mxGeometry width="50" height="50" relative="1" as="geometry">
            <mxPoint x="370" y="280" as="sourcePoint" />
            <mxPoint x="370" y="230" as="targetPoint" />
            <Array as="points">
              <mxPoint x="320" y="230" />
            </Array>
          </mxGeometry>
        </mxCell>
        <mxCell id="lrRXcVhisEiBtLIxsdMu-90" value="y" style="text;html=1;align=center;verticalAlign=middle;resizable=0;points=[];autosize=1;strokeColor=none;fillColor=none;" parent="1" vertex="1">
          <mxGeometry x="365" y="285" width="30" height="30" as="geometry" />
        </mxCell>
        <mxCell id="lrRXcVhisEiBtLIxsdMu-91" value="" style="curved=1;endArrow=classic;html=1;rounded=0;exitX=1.038;exitY=0.426;exitDx=0;exitDy=0;entryX=0.5;entryY=1;entryDx=0;entryDy=0;exitPerimeter=0;" parent="1" source="lrRXcVhisEiBtLIxsdMu-77" target="6kxqg8SRKIHMtfkFayjp-391" edge="1">
          <mxGeometry width="50" height="50" relative="1" as="geometry">
            <mxPoint x="830" y="275" as="sourcePoint" />
            <mxPoint x="330" y="401" as="targetPoint" />
            <Array as="points">
              <mxPoint x="710" y="420" />
              <mxPoint x="650" y="540" />
              <mxPoint x="410" y="580" />
              <mxPoint x="310" y="400" />
            </Array>
          </mxGeometry>
        </mxCell>
        <mxCell id="lrRXcVhisEiBtLIxsdMu-92" value="p = 1" style="text;html=1;align=center;verticalAlign=middle;whiteSpace=wrap;rounded=0;" parent="1" vertex="1">
          <mxGeometry x="380" y="434" width="60" height="30" as="geometry" />
        </mxCell>
        <mxCell id="lrRXcVhisEiBtLIxsdMu-93" value="" style="endArrow=classic;html=1;rounded=0;exitX=1.086;exitY=0.402;exitDx=0;exitDy=0;exitPerimeter=0;" parent="1" source="lrRXcVhisEiBtLIxsdMu-26" edge="1">
          <mxGeometry width="50" height="50" relative="1" as="geometry">
            <mxPoint x="430" y="413.77" as="sourcePoint" />
            <mxPoint x="460" y="413.77" as="targetPoint" />
          </mxGeometry>
        </mxCell>
        <mxCell id="lrRXcVhisEiBtLIxsdMu-94" value="" style="ellipse;whiteSpace=wrap;html=1;aspect=fixed;" parent="1" vertex="1">
          <mxGeometry x="460" y="394" width="40" height="40" as="geometry" />
        </mxCell>
        <mxCell id="lrRXcVhisEiBtLIxsdMu-95" value="" style="whiteSpace=wrap;html=1;" parent="1" vertex="1">
          <mxGeometry x="530" y="394" width="10" height="40" as="geometry" />
        </mxCell>
        <mxCell id="lrRXcVhisEiBtLIxsdMu-96" value="" style="endArrow=classic;html=1;rounded=0;exitX=1;exitY=0.5;exitDx=0;exitDy=0;" parent="1" edge="1">
          <mxGeometry width="50" height="50" relative="1" as="geometry">
            <mxPoint x="500" y="413.72" as="sourcePoint" />
            <mxPoint x="530" y="413.72" as="targetPoint" />
          </mxGeometry>
        </mxCell>
        <mxCell id="lrRXcVhisEiBtLIxsdMu-97" value="4-8 min" style="text;html=1;align=center;verticalAlign=middle;whiteSpace=wrap;rounded=0;" parent="1" vertex="1">
          <mxGeometry x="505" y="434" width="60" height="30" as="geometry" />
        </mxCell>
        <mxCell id="lrRXcVhisEiBtLIxsdMu-98" value="" style="ellipse;whiteSpace=wrap;html=1;aspect=fixed;" parent="1" vertex="1">
          <mxGeometry x="410" y="474" width="40" height="40" as="geometry" />
        </mxCell>
        <mxCell id="lrRXcVhisEiBtLIxsdMu-99" value="z" style="text;html=1;align=center;verticalAlign=middle;whiteSpace=wrap;rounded=0;" parent="1" vertex="1">
          <mxGeometry x="410" y="479" width="40" height="30" as="geometry" />
        </mxCell>
        <mxCell id="lrRXcVhisEiBtLIxsdMu-100" value="" style="curved=1;endArrow=classic;html=1;rounded=0;exitX=0;exitY=0.5;exitDx=0;exitDy=0;entryX=0;entryY=0.75;entryDx=0;entryDy=0;" parent="1" source="lrRXcVhisEiBtLIxsdMu-99" target="6kxqg8SRKIHMtfkFayjp-393" edge="1">
          <mxGeometry width="50" height="50" relative="1" as="geometry">
            <mxPoint x="391" y="490" as="sourcePoint" />
            <mxPoint x="375" y="440" as="targetPoint" />
            <Array as="points">
              <mxPoint x="300" y="380" />
            </Array>
          </mxGeometry>
        </mxCell>
        <mxCell id="lrRXcVhisEiBtLIxsdMu-101" value="" style="curved=1;endArrow=classic;html=1;rounded=0;exitX=1;exitY=0.75;exitDx=0;exitDy=0;entryX=1;entryY=0.5;entryDx=0;entryDy=0;" parent="1" source="lrRXcVhisEiBtLIxsdMu-95" target="lrRXcVhisEiBtLIxsdMu-99" edge="1">
          <mxGeometry width="50" height="50" relative="1" as="geometry">
            <mxPoint x="620" y="424" as="sourcePoint" />
            <mxPoint x="480" y="494" as="targetPoint" />
            <Array as="points">
              <mxPoint x="570" y="424" />
              <mxPoint x="590" y="474" />
            </Array>
          </mxGeometry>
        </mxCell>
        <mxCell id="lrRXcVhisEiBtLIxsdMu-102" value="" style="ellipse;whiteSpace=wrap;html=1;aspect=fixed;" parent="1" vertex="1">
          <mxGeometry x="570" y="394" width="40" height="40" as="geometry" />
        </mxCell>
        <mxCell id="lrRXcVhisEiBtLIxsdMu-103" value="" style="whiteSpace=wrap;html=1;fillColor=#000000;" parent="1" vertex="1">
          <mxGeometry x="640" y="394" width="10" height="40" as="geometry" />
        </mxCell>
        <mxCell id="lrRXcVhisEiBtLIxsdMu-104" value="" style="endArrow=classic;html=1;rounded=0;exitX=1;exitY=0.5;exitDx=0;exitDy=0;" parent="1" edge="1">
          <mxGeometry width="50" height="50" relative="1" as="geometry">
            <mxPoint x="610" y="413.72" as="sourcePoint" />
            <mxPoint x="640" y="413.72" as="targetPoint" />
          </mxGeometry>
        </mxCell>
        <mxCell id="lrRXcVhisEiBtLIxsdMu-105" value="" style="endArrow=classic;html=1;rounded=0;exitX=1;exitY=0.5;exitDx=0;exitDy=0;" parent="1" edge="1">
          <mxGeometry width="50" height="50" relative="1" as="geometry">
            <mxPoint x="540" y="413.66999999999996" as="sourcePoint" />
            <mxPoint x="570" y="413.66999999999996" as="targetPoint" />
          </mxGeometry>
        </mxCell>
        <mxCell id="lrRXcVhisEiBtLIxsdMu-106" value="exp(1 min.)" style="text;html=1;align=center;verticalAlign=middle;whiteSpace=wrap;rounded=0;" parent="1" vertex="1">
          <mxGeometry x="-255" y="245" width="65" height="30" as="geometry" />
        </mxCell>
        <mxCell id="lrRXcVhisEiBtLIxsdMu-108" value="" style="whiteSpace=wrap;html=1;" parent="1" vertex="1">
          <mxGeometry x="-270" y="505" width="10" height="40" as="geometry" />
        </mxCell>
        <mxCell id="lrRXcVhisEiBtLIxsdMu-109" value="" style="ellipse;whiteSpace=wrap;html=1;aspect=fixed;" parent="1" vertex="1">
          <mxGeometry x="-340" y="505" width="40" height="40" as="geometry" />
        </mxCell>
        <mxCell id="lrRXcVhisEiBtLIxsdMu-110" value="" style="endArrow=classic;html=1;rounded=0;exitX=1;exitY=0.5;exitDx=0;exitDy=0;" parent="1" edge="1">
          <mxGeometry width="50" height="50" relative="1" as="geometry">
            <mxPoint x="-300" y="524.72" as="sourcePoint" />
            <mxPoint x="-270" y="524.72" as="targetPoint" />
          </mxGeometry>
        </mxCell>
        <mxCell id="lrRXcVhisEiBtLIxsdMu-112" value="" style="endArrow=classic;html=1;rounded=0;exitX=1;exitY=0.5;exitDx=0;exitDy=0;" parent="1" edge="1">
          <mxGeometry width="50" height="50" relative="1" as="geometry">
            <mxPoint x="-260" y="524.77" as="sourcePoint" />
            <mxPoint x="-230" y="524.77" as="targetPoint" />
          </mxGeometry>
        </mxCell>
        <mxCell id="lrRXcVhisEiBtLIxsdMu-113" value="" style="ellipse;whiteSpace=wrap;html=1;aspect=fixed;" parent="1" vertex="1">
          <mxGeometry x="-230" y="505" width="40" height="40" as="geometry" />
        </mxCell>
        <mxCell id="lrRXcVhisEiBtLIxsdMu-114" value="" style="whiteSpace=wrap;html=1;" parent="1" vertex="1">
          <mxGeometry x="-160" y="505" width="10" height="40" as="geometry" />
        </mxCell>
        <mxCell id="lrRXcVhisEiBtLIxsdMu-115" value="" style="endArrow=classic;html=1;rounded=0;exitX=1;exitY=0.5;exitDx=0;exitDy=0;" parent="1" edge="1">
          <mxGeometry width="50" height="50" relative="1" as="geometry">
            <mxPoint x="-190" y="524.72" as="sourcePoint" />
            <mxPoint x="-160" y="524.72" as="targetPoint" />
          </mxGeometry>
        </mxCell>
        <mxCell id="lrRXcVhisEiBtLIxsdMu-116" value="" style="endArrow=classic;html=1;rounded=0;exitX=1;exitY=0.5;exitDx=0;exitDy=0;" parent="1" edge="1">
          <mxGeometry width="50" height="50" relative="1" as="geometry">
            <mxPoint x="-150" y="524.77" as="sourcePoint" />
            <mxPoint x="-120" y="524.77" as="targetPoint" />
          </mxGeometry>
        </mxCell>
        <mxCell id="lrRXcVhisEiBtLIxsdMu-117" value="" style="ellipse;whiteSpace=wrap;html=1;aspect=fixed;" parent="1" vertex="1">
          <mxGeometry x="-120" y="505" width="40" height="40" as="geometry" />
        </mxCell>
        <mxCell id="lrRXcVhisEiBtLIxsdMu-118" value="" style="whiteSpace=wrap;html=1;" parent="1" vertex="1">
          <mxGeometry x="-50" y="505" width="10" height="40" as="geometry" />
        </mxCell>
        <mxCell id="lrRXcVhisEiBtLIxsdMu-119" value="" style="endArrow=classic;html=1;rounded=0;exitX=1;exitY=0.5;exitDx=0;exitDy=0;" parent="1" edge="1">
          <mxGeometry width="50" height="50" relative="1" as="geometry">
            <mxPoint x="-80" y="524.72" as="sourcePoint" />
            <mxPoint x="-50" y="524.72" as="targetPoint" />
          </mxGeometry>
        </mxCell>
        <mxCell id="lrRXcVhisEiBtLIxsdMu-120" value="PracovnÃ­ doba" style="text;strokeColor=none;fillColor=none;html=1;fontSize=24;fontStyle=1;verticalAlign=middle;align=center;" parent="1" vertex="1">
          <mxGeometry x="-390" y="425" width="100" height="40" as="geometry" />
        </mxCell>
        <mxCell id="lrRXcVhisEiBtLIxsdMu-121" value="" style="ellipse;whiteSpace=wrap;html=1;aspect=fixed;" parent="1" vertex="1">
          <mxGeometry x="-230" y="425" width="40" height="40" as="geometry" />
        </mxCell>
        <mxCell id="lrRXcVhisEiBtLIxsdMu-127" value="" style="whiteSpace=wrap;html=1;" parent="1" vertex="1">
          <mxGeometry x="-270" y="345" width="10" height="40" as="geometry" />
        </mxCell>
        <mxCell id="lrRXcVhisEiBtLIxsdMu-128" value="" style="endArrow=classic;html=1;rounded=0;exitX=1;exitY=0.5;exitDx=0;exitDy=0;" parent="1" edge="1">
          <mxGeometry width="50" height="50" relative="1" as="geometry">
            <mxPoint x="-260" y="364.77" as="sourcePoint" />
            <mxPoint x="-230" y="364.77" as="targetPoint" />
          </mxGeometry>
        </mxCell>
        <mxCell id="lrRXcVhisEiBtLIxsdMu-129" value="" style="ellipse;whiteSpace=wrap;html=1;aspect=fixed;" parent="1" vertex="1">
          <mxGeometry x="-230" y="345" width="40" height="40" as="geometry" />
        </mxCell>
        <mxCell id="lrRXcVhisEiBtLIxsdMu-130" value="" style="whiteSpace=wrap;html=1;fillColor=#000000;" parent="1" vertex="1">
          <mxGeometry x="-160" y="345" width="10" height="40" as="geometry" />
        </mxCell>
        <mxCell id="lrRXcVhisEiBtLIxsdMu-131" value="" style="endArrow=classic;html=1;rounded=0;exitX=1;exitY=0.5;exitDx=0;exitDy=0;" parent="1" edge="1">
          <mxGeometry width="50" height="50" relative="1" as="geometry">
            <mxPoint x="-190" y="364.72" as="sourcePoint" />
            <mxPoint x="-160" y="364.72" as="targetPoint" />
          </mxGeometry>
        </mxCell>
        <mxCell id="lrRXcVhisEiBtLIxsdMu-133" value="" style="curved=1;endArrow=classic;html=1;rounded=0;exitX=0;exitY=1;exitDx=0;exitDy=0;" parent="1" source="lrRXcVhisEiBtLIxsdMu-121" edge="1">
          <mxGeometry width="50" height="50" relative="1" as="geometry">
            <mxPoint x="-320" y="465" as="sourcePoint" />
            <mxPoint x="-270" y="515" as="targetPoint" />
            <Array as="points">
              <mxPoint x="-270" y="465" />
              <mxPoint x="-300" y="515" />
            </Array>
          </mxGeometry>
        </mxCell>
        <mxCell id="lrRXcVhisEiBtLIxsdMu-134" value="" style="curved=1;endArrow=none;html=1;rounded=0;exitX=1;exitY=1;exitDx=0;exitDy=0;startArrow=classic;startFill=1;endFill=0;" parent="1" source="lrRXcVhisEiBtLIxsdMu-121" edge="1">
          <mxGeometry width="50" height="50" relative="1" as="geometry">
            <mxPoint x="-193" y="455" as="sourcePoint" />
            <mxPoint x="-150" y="511" as="targetPoint" />
            <Array as="points">
              <mxPoint x="-147" y="461" />
              <mxPoint x="-117" y="511" />
            </Array>
          </mxGeometry>
        </mxCell>
        <mxCell id="lrRXcVhisEiBtLIxsdMu-135" value="p = 2" style="text;html=1;align=center;verticalAlign=middle;whiteSpace=wrap;rounded=0;" parent="1" vertex="1">
          <mxGeometry x="-295" y="545" width="60" height="30" as="geometry" />
        </mxCell>
        <mxCell id="lrRXcVhisEiBtLIxsdMu-136" value="8h" style="text;html=1;align=center;verticalAlign=middle;resizable=0;points=[];autosize=1;strokeColor=none;fillColor=none;" parent="1" vertex="1">
          <mxGeometry x="-175" y="545" width="40" height="30" as="geometry" />
        </mxCell>
        <mxCell id="lrRXcVhisEiBtLIxsdMu-137" value="16h" style="text;html=1;align=center;verticalAlign=middle;resizable=0;points=[];autosize=1;strokeColor=none;fillColor=none;" parent="1" vertex="1">
          <mxGeometry x="-65" y="545" width="40" height="30" as="geometry" />
        </mxCell>
        <mxCell id="lrRXcVhisEiBtLIxsdMu-138" value="" style="curved=1;endArrow=classic;html=1;rounded=0;exitX=1;exitY=0.75;exitDx=0;exitDy=0;entryX=0;entryY=0.5;entryDx=0;entryDy=0;" parent="1" source="lrRXcVhisEiBtLIxsdMu-118" target="lrRXcVhisEiBtLIxsdMu-109" edge="1">
          <mxGeometry width="50" height="50" relative="1" as="geometry">
            <mxPoint x="-240" y="615" as="sourcePoint" />
            <mxPoint x="-380" y="525" as="targetPoint" />
            <Array as="points">
              <mxPoint x="30" y="575" />
              <mxPoint x="-190" y="615" />
              <mxPoint x="-440" y="575" />
            </Array>
          </mxGeometry>
        </mxCell>
        <mxCell id="lrRXcVhisEiBtLIxsdMu-139" value="p = 1" style="text;html=1;align=center;verticalAlign=middle;whiteSpace=wrap;rounded=0;" parent="1" vertex="1">
          <mxGeometry x="-295" y="385" width="60" height="30" as="geometry" />
        </mxCell>
        <mxCell id="lrRXcVhisEiBtLIxsdMu-140" value="" style="curved=1;endArrow=classic;html=1;rounded=0;exitX=0.167;exitY=0.833;exitDx=0;exitDy=0;exitPerimeter=0;" parent="1" edge="1">
          <mxGeometry width="50" height="50" relative="1" as="geometry">
            <mxPoint x="-229.9799999999999" y="444.99" as="sourcePoint" />
            <mxPoint x="-270" y="375" as="targetPoint" />
            <Array as="points">
              <mxPoint x="-270" y="425" />
              <mxPoint x="-320" y="375" />
            </Array>
          </mxGeometry>
        </mxCell>
        <mxCell id="lrRXcVhisEiBtLIxsdMu-142" value="" style="curved=1;endArrow=classic;html=1;rounded=0;" parent="1" edge="1">
          <mxGeometry width="50" height="50" relative="1" as="geometry">
            <mxPoint x="-260" y="375.0000000000002" as="sourcePoint" />
            <mxPoint x="-210" y="425.0000000000002" as="targetPoint" />
            <Array as="points">
              <mxPoint x="-250" y="375" />
              <mxPoint x="-230" y="405" />
            </Array>
          </mxGeometry>
        </mxCell>
        <mxCell id="lrRXcVhisEiBtLIxsdMu-143" value="" style="curved=1;endArrow=classic;html=1;rounded=0;exitX=0.5;exitY=1;exitDx=0;exitDy=0;entryX=0;entryY=0.25;entryDx=0;entryDy=0;" parent="1" source="lrRXcVhisEiBtLIxsdMu-3" target="lrRXcVhisEiBtLIxsdMu-127" edge="1">
          <mxGeometry width="50" height="50" relative="1" as="geometry">
            <mxPoint x="90" y="390" as="sourcePoint" />
            <mxPoint x="140" y="440" as="targetPoint" />
            <Array as="points">
              <mxPoint x="-180" y="310" />
              <mxPoint x="-330" y="270" />
            </Array>
          </mxGeometry>
        </mxCell>
        <mxCell id="lrRXcVhisEiBtLIxsdMu-171" value="" style="ellipse;whiteSpace=wrap;html=1;aspect=fixed;fillColor=#000000;" parent="1" vertex="1">
          <mxGeometry x="-325" y="520" width="10" height="10" as="geometry" />
        </mxCell>
        <mxCell id="6kxqg8SRKIHMtfkFayjp-7" value="" style="ellipse;whiteSpace=wrap;html=1;aspect=fixed;fillColor=#000000;" parent="1" vertex="1">
          <mxGeometry x="-215" y="440" width="10" height="10" as="geometry" />
        </mxCell>
        <mxCell id="6kxqg8SRKIHMtfkFayjp-297" value="" style="endArrow=classic;html=1;rounded=0;exitX=1;exitY=0.5;exitDx=0;exitDy=0;entryX=0;entryY=0.5;entryDx=0;entryDy=0;" parent="1" source="lrRXcVhisEiBtLIxsdMu-6" edge="1">
          <mxGeometry width="50" height="50" relative="1" as="geometry">
            <mxPoint x="140" y="120" as="sourcePoint" />
            <mxPoint x="80.00000000000023" y="35" as="targetPoint" />
          </mxGeometry>
        </mxCell>
        <mxCell id="6kxqg8SRKIHMtfkFayjp-301" value="p = 1" style="text;html=1;align=center;verticalAlign=middle;whiteSpace=wrap;rounded=0;" parent="1" vertex="1">
          <mxGeometry x="345" y="235" width="60" height="30" as="geometry" />
        </mxCell>
        <mxCell id="6kxqg8SRKIHMtfkFayjp-302" value="" style="whiteSpace=wrap;html=1;" parent="1" vertex="1">
          <mxGeometry x="130" y="-65" width="10" height="40" as="geometry" />
        </mxCell>
        <mxCell id="6kxqg8SRKIHMtfkFayjp-304" value="" style="ellipse;whiteSpace=wrap;html=1;aspect=fixed;" parent="1" vertex="1">
          <mxGeometry x="170" y="-90" width="40" height="40" as="geometry" />
        </mxCell>
        <mxCell id="6kxqg8SRKIHMtfkFayjp-305" value="" style="endArrow=classic;html=1;rounded=0;exitX=1;exitY=0.5;exitDx=0;exitDy=0;entryX=0;entryY=0.5;entryDx=0;entryDy=0;" parent="1" source="6kxqg8SRKIHMtfkFayjp-302" target="6kxqg8SRKIHMtfkFayjp-304" edge="1">
          <mxGeometry width="50" height="50" relative="1" as="geometry">
            <mxPoint x="180" y="-9.760000000000005" as="sourcePoint" />
            <mxPoint x="230" y="-120.00000000000001" as="targetPoint" />
          </mxGeometry>
        </mxCell>
        <mxCell id="6kxqg8SRKIHMtfkFayjp-306" value="" style="whiteSpace=wrap;html=1;" parent="1" vertex="1">
          <mxGeometry x="250" y="-160" width="10" height="40" as="geometry" />
        </mxCell>
        <mxCell id="6kxqg8SRKIHMtfkFayjp-307" value="" style="whiteSpace=wrap;html=1;" parent="1" vertex="1">
          <mxGeometry x="250" y="-90" width="10" height="40" as="geometry" />
        </mxCell>
        <mxCell id="6kxqg8SRKIHMtfkFayjp-308" value="40%" style="text;html=1;align=center;verticalAlign=middle;resizable=0;points=[];autosize=1;strokeColor=none;fillColor=none;" parent="1" vertex="1">
          <mxGeometry x="230" y="-125" width="50" height="30" as="geometry" />
        </mxCell>
        <mxCell id="6kxqg8SRKIHMtfkFayjp-309" value="60%" style="text;html=1;align=center;verticalAlign=middle;resizable=0;points=[];autosize=1;strokeColor=none;fillColor=none;" parent="1" vertex="1">
          <mxGeometry x="230" y="-55" width="50" height="30" as="geometry" />
        </mxCell>
        <mxCell id="6kxqg8SRKIHMtfkFayjp-310" value="" style="endArrow=classic;html=1;rounded=0;exitX=1;exitY=0;exitDx=0;exitDy=0;entryX=0;entryY=0.5;entryDx=0;entryDy=0;" parent="1" source="6kxqg8SRKIHMtfkFayjp-304" target="6kxqg8SRKIHMtfkFayjp-306" edge="1">
          <mxGeometry width="50" height="50" relative="1" as="geometry">
            <mxPoint x="310" y="-50" as="sourcePoint" />
            <mxPoint x="360" y="-100" as="targetPoint" />
          </mxGeometry>
        </mxCell>
        <mxCell id="6kxqg8SRKIHMtfkFayjp-311" value="" style="endArrow=classic;html=1;rounded=0;exitX=1;exitY=1;exitDx=0;exitDy=0;entryX=0;entryY=0.5;entryDx=0;entryDy=0;" parent="1" source="6kxqg8SRKIHMtfkFayjp-304" target="6kxqg8SRKIHMtfkFayjp-307" edge="1">
          <mxGeometry width="50" height="50" relative="1" as="geometry">
            <mxPoint x="274" y="-154" as="sourcePoint" />
            <mxPoint x="325" y="-210" as="targetPoint" />
          </mxGeometry>
        </mxCell>
        <mxCell id="6kxqg8SRKIHMtfkFayjp-312" value="" style="ellipse;whiteSpace=wrap;html=1;aspect=fixed;" parent="1" vertex="1">
          <mxGeometry x="280" y="-175" width="40" height="40" as="geometry" />
        </mxCell>
        <mxCell id="6kxqg8SRKIHMtfkFayjp-313" value="" style="endArrow=classic;html=1;rounded=0;exitX=1.062;exitY=0.39;exitDx=0;exitDy=0;entryX=0;entryY=0.5;entryDx=0;entryDy=0;exitPerimeter=0;" parent="1" source="6kxqg8SRKIHMtfkFayjp-306" target="6kxqg8SRKIHMtfkFayjp-312" edge="1">
          <mxGeometry width="50" height="50" relative="1" as="geometry">
            <mxPoint x="325" y="-214" as="sourcePoint" />
            <mxPoint x="376" y="-270" as="targetPoint" />
          </mxGeometry>
        </mxCell>
        <mxCell id="6kxqg8SRKIHMtfkFayjp-314" value="" style="ellipse;whiteSpace=wrap;html=1;aspect=fixed;" parent="1" vertex="1">
          <mxGeometry x="280" y="-100" width="40" height="40" as="geometry" />
        </mxCell>
        <mxCell id="6kxqg8SRKIHMtfkFayjp-315" value="" style="whiteSpace=wrap;html=1;" parent="1" vertex="1">
          <mxGeometry x="390" y="-135" width="10" height="40" as="geometry" />
        </mxCell>
        <mxCell id="6kxqg8SRKIHMtfkFayjp-317" value="" style="endArrow=classic;html=1;rounded=0;exitX=1;exitY=0.5;exitDx=0;exitDy=0;entryX=0;entryY=0.5;entryDx=0;entryDy=0;" parent="1" source="6kxqg8SRKIHMtfkFayjp-307" target="6kxqg8SRKIHMtfkFayjp-314" edge="1">
          <mxGeometry width="50" height="50" relative="1" as="geometry">
            <mxPoint x="325" y="-120" as="sourcePoint" />
            <mxPoint x="376" y="-104" as="targetPoint" />
          </mxGeometry>
        </mxCell>
        <mxCell id="6kxqg8SRKIHMtfkFayjp-318" value="" style="endArrow=classic;html=1;rounded=0;exitX=1;exitY=0.5;exitDx=0;exitDy=0;entryX=0;entryY=0.25;entryDx=0;entryDy=0;" parent="1" source="6kxqg8SRKIHMtfkFayjp-314" target="6kxqg8SRKIHMtfkFayjp-315" edge="1">
          <mxGeometry width="50" height="50" relative="1" as="geometry">
            <mxPoint x="335" y="-110" as="sourcePoint" />
            <mxPoint x="380" y="-110" as="targetPoint" />
          </mxGeometry>
        </mxCell>
        <mxCell id="6kxqg8SRKIHMtfkFayjp-320" value="p = 2" style="text;html=1;align=center;verticalAlign=middle;whiteSpace=wrap;rounded=0;" parent="1" vertex="1">
          <mxGeometry x="370" y="-100" width="60" height="30" as="geometry" />
        </mxCell>
        <mxCell id="6kxqg8SRKIHMtfkFayjp-321" value="" style="whiteSpace=wrap;html=1;gradientColor=none;fillColor=#000000;" parent="1" vertex="1">
          <mxGeometry x="345" y="-190" width="10" height="40" as="geometry" />
        </mxCell>
        <mxCell id="6kxqg8SRKIHMtfkFayjp-322" value="" style="whiteSpace=wrap;html=1;" parent="1" vertex="1">
          <mxGeometry x="160" y="-170" width="10" height="40" as="geometry" />
        </mxCell>
        <mxCell id="6kxqg8SRKIHMtfkFayjp-324" value="" style="endArrow=classic;html=1;rounded=0;exitX=1;exitY=0.5;exitDx=0;exitDy=0;entryX=0;entryY=0.5;entryDx=0;entryDy=0;" parent="1" source="6kxqg8SRKIHMtfkFayjp-312" target="6kxqg8SRKIHMtfkFayjp-321" edge="1">
          <mxGeometry width="50" height="50" relative="1" as="geometry">
            <mxPoint x="430" y="-264" as="sourcePoint" />
            <mxPoint x="494" y="-300" as="targetPoint" />
          </mxGeometry>
        </mxCell>
        <mxCell id="6kxqg8SRKIHMtfkFayjp-326" value="20%" style="text;html=1;align=center;verticalAlign=middle;resizable=0;points=[];autosize=1;strokeColor=none;fillColor=none;" parent="1" vertex="1">
          <mxGeometry x="140" y="-135" width="50" height="30" as="geometry" />
        </mxCell>
        <mxCell id="6kxqg8SRKIHMtfkFayjp-327" value="" style="ellipse;whiteSpace=wrap;html=1;aspect=fixed;" parent="1" vertex="1">
          <mxGeometry x="80" y="-110" width="40" height="40" as="geometry" />
        </mxCell>
        <mxCell id="6kxqg8SRKIHMtfkFayjp-329" value="" style="whiteSpace=wrap;html=1;" parent="1" vertex="1">
          <mxGeometry x="50" y="-25" width="10" height="40" as="geometry" />
        </mxCell>
        <mxCell id="6kxqg8SRKIHMtfkFayjp-330" value="" style="curved=1;endArrow=classic;html=1;rounded=0;entryX=0;entryY=0.25;entryDx=0;entryDy=0;exitX=0;exitY=1;exitDx=0;exitDy=0;" parent="1" source="6kxqg8SRKIHMtfkFayjp-327" target="6kxqg8SRKIHMtfkFayjp-329" edge="1">
          <mxGeometry width="50" height="50" relative="1" as="geometry">
            <mxPoint x="90" y="-242" as="sourcePoint" />
            <mxPoint x="140" y="-292" as="targetPoint" />
            <Array as="points">
              <mxPoint x="10" y="-20" />
            </Array>
          </mxGeometry>
        </mxCell>
        <mxCell id="6kxqg8SRKIHMtfkFayjp-332" value="" style="endArrow=classic;html=1;rounded=0;entryX=0;entryY=0;entryDx=0;entryDy=0;exitX=1;exitY=0.5;exitDx=0;exitDy=0;" parent="1" source="6kxqg8SRKIHMtfkFayjp-329" target="lrRXcVhisEiBtLIxsdMu-18" edge="1">
          <mxGeometry width="50" height="50" relative="1" as="geometry">
            <mxPoint x="50" y="-30" as="sourcePoint" />
            <mxPoint x="100" y="-80" as="targetPoint" />
          </mxGeometry>
        </mxCell>
        <mxCell id="6kxqg8SRKIHMtfkFayjp-333" value="" style="whiteSpace=wrap;html=1;" parent="1" vertex="1">
          <mxGeometry x="700" y="200" width="10" height="40" as="geometry" />
        </mxCell>
        <mxCell id="6kxqg8SRKIHMtfkFayjp-334" value="" style="endArrow=classic;html=1;rounded=0;exitX=1;exitY=0.5;exitDx=0;exitDy=0;" parent="1" edge="1">
          <mxGeometry width="50" height="50" relative="1" as="geometry">
            <mxPoint x="670" y="219.72" as="sourcePoint" />
            <mxPoint x="700" y="219.72" as="targetPoint" />
          </mxGeometry>
        </mxCell>
        <mxCell id="6kxqg8SRKIHMtfkFayjp-335" value="5-10 min." style="text;html=1;align=center;verticalAlign=middle;whiteSpace=wrap;rounded=0;" parent="1" vertex="1">
          <mxGeometry x="675" y="240" width="60" height="30" as="geometry" />
        </mxCell>
        <mxCell id="6kxqg8SRKIHMtfkFayjp-336" value="" style="endArrow=classic;html=1;rounded=0;exitX=1;exitY=0.5;exitDx=0;exitDy=0;" parent="1" edge="1">
          <mxGeometry width="50" height="50" relative="1" as="geometry">
            <mxPoint x="710" y="219.76999999999998" as="sourcePoint" />
            <mxPoint x="740" y="219.76999999999998" as="targetPoint" />
          </mxGeometry>
        </mxCell>
        <mxCell id="6kxqg8SRKIHMtfkFayjp-337" value="" style="ellipse;whiteSpace=wrap;html=1;aspect=fixed;" parent="1" vertex="1">
          <mxGeometry x="740" y="200" width="40" height="40" as="geometry" />
        </mxCell>
        <mxCell id="6kxqg8SRKIHMtfkFayjp-338" value="" style="whiteSpace=wrap;html=1;fillColor=#000000;" parent="1" vertex="1">
          <mxGeometry x="810" y="200" width="10" height="40" as="geometry" />
        </mxCell>
        <mxCell id="6kxqg8SRKIHMtfkFayjp-339" value="" style="endArrow=classic;html=1;rounded=0;exitX=1;exitY=0.5;exitDx=0;exitDy=0;" parent="1" edge="1">
          <mxGeometry width="50" height="50" relative="1" as="geometry">
            <mxPoint x="780" y="219.72" as="sourcePoint" />
            <mxPoint x="810" y="219.72" as="targetPoint" />
          </mxGeometry>
        </mxCell>
        <mxCell id="6kxqg8SRKIHMtfkFayjp-348" value="80%" style="text;html=1;align=center;verticalAlign=middle;resizable=0;points=[];autosize=1;strokeColor=none;fillColor=none;" parent="1" vertex="1">
          <mxGeometry x="330" y="-155" width="50" height="30" as="geometry" />
        </mxCell>
        <mxCell id="6kxqg8SRKIHMtfkFayjp-349" value="30-60 min" style="text;html=1;align=center;verticalAlign=middle;resizable=0;points=[];autosize=1;strokeColor=none;fillColor=none;" parent="1" vertex="1">
          <mxGeometry y="10" width="80" height="30" as="geometry" />
        </mxCell>
        <mxCell id="6kxqg8SRKIHMtfkFayjp-350" value="" style="endArrow=classic;html=1;rounded=0;entryX=1;entryY=0.5;entryDx=0;entryDy=0;exitX=0;exitY=0.5;exitDx=0;exitDy=0;" parent="1" source="6kxqg8SRKIHMtfkFayjp-322" target="6kxqg8SRKIHMtfkFayjp-327" edge="1">
          <mxGeometry width="50" height="50" relative="1" as="geometry">
            <mxPoint x="120" y="-100" as="sourcePoint" />
            <mxPoint x="170" y="-150" as="targetPoint" />
          </mxGeometry>
        </mxCell>
        <mxCell id="6kxqg8SRKIHMtfkFayjp-351" value="" style="whiteSpace=wrap;html=1;" parent="1" vertex="1">
          <mxGeometry x="250" y="69" width="10" height="40" as="geometry" />
        </mxCell>
        <mxCell id="6kxqg8SRKIHMtfkFayjp-352" value="40%" style="text;html=1;align=center;verticalAlign=middle;resizable=0;points=[];autosize=1;strokeColor=none;fillColor=none;" parent="1" vertex="1">
          <mxGeometry x="230" y="104" width="50" height="30" as="geometry" />
        </mxCell>
        <mxCell id="6kxqg8SRKIHMtfkFayjp-353" value="" style="endArrow=classic;html=1;rounded=0;exitX=1;exitY=0;exitDx=0;exitDy=0;entryX=0;entryY=0.5;entryDx=0;entryDy=0;" parent="1" source="6kxqg8SRKIHMtfkFayjp-368" target="6kxqg8SRKIHMtfkFayjp-351" edge="1">
          <mxGeometry width="50" height="50" relative="1" as="geometry">
            <mxPoint x="310" y="179" as="sourcePoint" />
            <mxPoint x="360" y="129" as="targetPoint" />
          </mxGeometry>
        </mxCell>
        <mxCell id="6kxqg8SRKIHMtfkFayjp-354" value="" style="ellipse;whiteSpace=wrap;html=1;aspect=fixed;" parent="1" vertex="1">
          <mxGeometry x="280" y="54" width="40" height="40" as="geometry" />
        </mxCell>
        <mxCell id="6kxqg8SRKIHMtfkFayjp-355" value="" style="endArrow=classic;html=1;rounded=0;exitX=1.062;exitY=0.39;exitDx=0;exitDy=0;entryX=0;entryY=0.5;entryDx=0;entryDy=0;exitPerimeter=0;" parent="1" source="6kxqg8SRKIHMtfkFayjp-351" target="6kxqg8SRKIHMtfkFayjp-354" edge="1">
          <mxGeometry width="50" height="50" relative="1" as="geometry">
            <mxPoint x="325" y="15" as="sourcePoint" />
            <mxPoint x="376" y="-41" as="targetPoint" />
          </mxGeometry>
        </mxCell>
        <mxCell id="6kxqg8SRKIHMtfkFayjp-356" value="" style="endArrow=classic;html=1;rounded=0;exitX=1;exitY=0.5;exitDx=0;exitDy=0;entryX=0;entryY=0.5;entryDx=0;entryDy=0;" parent="1" source="6kxqg8SRKIHMtfkFayjp-366" target="6kxqg8SRKIHMtfkFayjp-364" edge="1">
          <mxGeometry width="50" height="50" relative="1" as="geometry">
            <mxPoint x="325" y="109" as="sourcePoint" />
            <mxPoint x="376" y="125" as="targetPoint" />
          </mxGeometry>
        </mxCell>
        <mxCell id="6kxqg8SRKIHMtfkFayjp-357" value="" style="whiteSpace=wrap;html=1;gradientColor=none;fillColor=#000000;" parent="1" vertex="1">
          <mxGeometry x="335" y="64" width="10" height="40" as="geometry" />
        </mxCell>
        <mxCell id="6kxqg8SRKIHMtfkFayjp-358" value="" style="whiteSpace=wrap;html=1;" parent="1" vertex="1">
          <mxGeometry x="160" y="59" width="10" height="40" as="geometry" />
        </mxCell>
        <mxCell id="6kxqg8SRKIHMtfkFayjp-359" value="" style="endArrow=classic;html=1;rounded=0;exitX=1;exitY=0.5;exitDx=0;exitDy=0;entryX=0;entryY=0.5;entryDx=0;entryDy=0;" parent="1" source="6kxqg8SRKIHMtfkFayjp-354" target="6kxqg8SRKIHMtfkFayjp-357" edge="1">
          <mxGeometry width="50" height="50" relative="1" as="geometry">
            <mxPoint x="430" y="-35" as="sourcePoint" />
            <mxPoint x="494" y="-71" as="targetPoint" />
          </mxGeometry>
        </mxCell>
        <mxCell id="6kxqg8SRKIHMtfkFayjp-361" value="20%" style="text;html=1;align=center;verticalAlign=middle;resizable=0;points=[];autosize=1;strokeColor=none;fillColor=none;" parent="1" vertex="1">
          <mxGeometry x="140" y="94" width="50" height="30" as="geometry" />
        </mxCell>
        <mxCell id="6kxqg8SRKIHMtfkFayjp-362" value="" style="ellipse;whiteSpace=wrap;html=1;aspect=fixed;" parent="1" vertex="1">
          <mxGeometry x="80" y="79" width="40" height="40" as="geometry" />
        </mxCell>
        <mxCell id="6kxqg8SRKIHMtfkFayjp-363" value="" style="endArrow=classic;html=1;rounded=0;entryX=1;entryY=0.5;entryDx=0;entryDy=0;exitX=0;exitY=0.5;exitDx=0;exitDy=0;" parent="1" source="6kxqg8SRKIHMtfkFayjp-358" target="6kxqg8SRKIHMtfkFayjp-362" edge="1">
          <mxGeometry width="50" height="50" relative="1" as="geometry">
            <mxPoint x="120" y="129" as="sourcePoint" />
            <mxPoint x="170" y="79" as="targetPoint" />
          </mxGeometry>
        </mxCell>
        <mxCell id="6kxqg8SRKIHMtfkFayjp-364" value="" style="ellipse;whiteSpace=wrap;html=1;aspect=fixed;" parent="1" vertex="1">
          <mxGeometry x="280" y="129" width="40" height="40" as="geometry" />
        </mxCell>
        <mxCell id="6kxqg8SRKIHMtfkFayjp-365" value="" style="endArrow=classic;html=1;rounded=0;exitX=1;exitY=0.5;exitDx=0;exitDy=0;entryX=0;entryY=0.5;entryDx=0;entryDy=0;" parent="1" source="6kxqg8SRKIHMtfkFayjp-364" target="6kxqg8SRKIHMtfkFayjp-376" edge="1">
          <mxGeometry width="50" height="50" relative="1" as="geometry">
            <mxPoint x="335" y="119" as="sourcePoint" />
            <mxPoint x="370" y="150" as="targetPoint" />
            <Array as="points" />
          </mxGeometry>
        </mxCell>
        <mxCell id="6kxqg8SRKIHMtfkFayjp-366" value="" style="whiteSpace=wrap;html=1;" parent="1" vertex="1">
          <mxGeometry x="250" y="139" width="10" height="40" as="geometry" />
        </mxCell>
        <mxCell id="6kxqg8SRKIHMtfkFayjp-367" value="" style="endArrow=classic;html=1;rounded=0;exitX=1;exitY=1;exitDx=0;exitDy=0;entryX=0;entryY=0.5;entryDx=0;entryDy=0;" parent="1" source="6kxqg8SRKIHMtfkFayjp-368" target="6kxqg8SRKIHMtfkFayjp-366" edge="1">
          <mxGeometry width="50" height="50" relative="1" as="geometry">
            <mxPoint x="274" y="75" as="sourcePoint" />
            <mxPoint x="325" y="19" as="targetPoint" />
          </mxGeometry>
        </mxCell>
        <mxCell id="6kxqg8SRKIHMtfkFayjp-368" value="" style="ellipse;whiteSpace=wrap;html=1;aspect=fixed;" parent="1" vertex="1">
          <mxGeometry x="170" y="139" width="40" height="40" as="geometry" />
        </mxCell>
        <mxCell id="6kxqg8SRKIHMtfkFayjp-369" value="" style="endArrow=classic;html=1;rounded=0;exitX=1;exitY=0.5;exitDx=0;exitDy=0;entryX=0;entryY=0.5;entryDx=0;entryDy=0;" parent="1" source="6kxqg8SRKIHMtfkFayjp-370" target="6kxqg8SRKIHMtfkFayjp-368" edge="1">
          <mxGeometry width="50" height="50" relative="1" as="geometry">
            <mxPoint x="180" y="219.24" as="sourcePoint" />
            <mxPoint x="230" y="108.99999999999999" as="targetPoint" />
          </mxGeometry>
        </mxCell>
        <mxCell id="6kxqg8SRKIHMtfkFayjp-370" value="" style="whiteSpace=wrap;html=1;" parent="1" vertex="1">
          <mxGeometry x="130" y="134" width="10" height="40" as="geometry" />
        </mxCell>
        <mxCell id="6kxqg8SRKIHMtfkFayjp-371" value="" style="endArrow=classic;html=1;rounded=0;entryX=0;entryY=0.5;entryDx=0;entryDy=0;exitX=0.617;exitY=0.039;exitDx=0;exitDy=0;exitPerimeter=0;" parent="1" source="lrRXcVhisEiBtLIxsdMu-24" target="6kxqg8SRKIHMtfkFayjp-370" edge="1">
          <mxGeometry width="50" height="50" relative="1" as="geometry">
            <mxPoint x="100" y="160" as="sourcePoint" />
            <mxPoint x="150" y="128.76" as="targetPoint" />
            <Array as="points" />
          </mxGeometry>
        </mxCell>
        <mxCell id="6kxqg8SRKIHMtfkFayjp-372" value="" style="endArrow=classic;html=1;rounded=0;entryX=0.5;entryY=0;entryDx=0;entryDy=0;exitX=1;exitY=0.5;exitDx=0;exitDy=0;" parent="1" source="6kxqg8SRKIHMtfkFayjp-373" target="lrRXcVhisEiBtLIxsdMu-24" edge="1">
          <mxGeometry width="50" height="50" relative="1" as="geometry">
            <mxPoint x="50" y="199" as="sourcePoint" />
            <mxPoint x="86" y="245" as="targetPoint" />
          </mxGeometry>
        </mxCell>
        <mxCell id="6kxqg8SRKIHMtfkFayjp-373" value="" style="whiteSpace=wrap;html=1;" parent="1" vertex="1">
          <mxGeometry x="40" y="134" width="10" height="40" as="geometry" />
        </mxCell>
        <mxCell id="6kxqg8SRKIHMtfkFayjp-374" value="" style="curved=1;endArrow=classic;html=1;rounded=0;entryX=0;entryY=0.25;entryDx=0;entryDy=0;exitX=0;exitY=0.5;exitDx=0;exitDy=0;" parent="1" source="6kxqg8SRKIHMtfkFayjp-362" target="6kxqg8SRKIHMtfkFayjp-373" edge="1">
          <mxGeometry width="50" height="50" relative="1" as="geometry">
            <mxPoint x="90" y="-13" as="sourcePoint" />
            <mxPoint x="140" y="-63" as="targetPoint" />
            <Array as="points">
              <mxPoint x="30" y="120" />
              <mxPoint x="20" y="130" />
            </Array>
          </mxGeometry>
        </mxCell>
        <mxCell id="6kxqg8SRKIHMtfkFayjp-375" value="80%" style="text;html=1;align=center;verticalAlign=middle;resizable=0;points=[];autosize=1;strokeColor=none;fillColor=none;" parent="1" vertex="1">
          <mxGeometry x="310" y="99" width="50" height="30" as="geometry" />
        </mxCell>
        <mxCell id="6kxqg8SRKIHMtfkFayjp-376" value="" style="whiteSpace=wrap;html=1;" parent="1" vertex="1">
          <mxGeometry x="390" y="129" width="10" height="40" as="geometry" />
        </mxCell>
        <mxCell id="6kxqg8SRKIHMtfkFayjp-377" value="p = 2" style="text;html=1;align=center;verticalAlign=middle;whiteSpace=wrap;rounded=0;" parent="1" vertex="1">
          <mxGeometry x="370" y="164" width="60" height="30" as="geometry" />
        </mxCell>
        <mxCell id="6kxqg8SRKIHMtfkFayjp-378" value="60%" style="text;html=1;align=center;verticalAlign=middle;resizable=0;points=[];autosize=1;strokeColor=none;fillColor=none;" parent="1" vertex="1">
          <mxGeometry x="230" y="174" width="50" height="30" as="geometry" />
        </mxCell>
        <mxCell id="6kxqg8SRKIHMtfkFayjp-379" value="" style="curved=1;endArrow=classic;html=1;rounded=0;entryX=0;entryY=0.75;entryDx=0;entryDy=0;exitX=0.051;exitY=0.287;exitDx=0;exitDy=0;exitPerimeter=0;" parent="1" source="lrRXcVhisEiBtLIxsdMu-63" target="6kxqg8SRKIHMtfkFayjp-376" edge="1">
          <mxGeometry width="50" height="50" relative="1" as="geometry">
            <mxPoint x="310" y="200" as="sourcePoint" />
            <mxPoint x="360" y="150" as="targetPoint" />
            <Array as="points">
              <mxPoint x="280" y="250" />
              <mxPoint x="310" y="150" />
            </Array>
          </mxGeometry>
        </mxCell>
        <mxCell id="6kxqg8SRKIHMtfkFayjp-380" value="p = 1" style="text;html=1;align=center;verticalAlign=middle;whiteSpace=wrap;rounded=0;" parent="1" vertex="1">
          <mxGeometry x="345" y="49" width="60" height="30" as="geometry" />
        </mxCell>
        <mxCell id="6kxqg8SRKIHMtfkFayjp-382" value="30-60 min" style="text;html=1;align=center;verticalAlign=middle;resizable=0;points=[];autosize=1;strokeColor=none;fillColor=none;" parent="1" vertex="1">
          <mxGeometry y="170" width="80" height="30" as="geometry" />
        </mxCell>
        <mxCell id="6kxqg8SRKIHMtfkFayjp-384" value="" style="endArrow=classic;html=1;rounded=0;entryX=0;entryY=0.5;entryDx=0;entryDy=0;exitX=0.5;exitY=0;exitDx=0;exitDy=0;" parent="1" source="lrRXcVhisEiBtLIxsdMu-27" target="6kxqg8SRKIHMtfkFayjp-385" edge="1">
          <mxGeometry width="50" height="50" relative="1" as="geometry">
            <mxPoint x="40" y="408" as="sourcePoint" />
            <mxPoint x="105" y="339.76" as="targetPoint" />
            <Array as="points" />
          </mxGeometry>
        </mxCell>
        <mxCell id="6kxqg8SRKIHMtfkFayjp-385" value="" style="whiteSpace=wrap;html=1;" parent="1" vertex="1">
          <mxGeometry x="85" y="345" width="10" height="40" as="geometry" />
        </mxCell>
        <mxCell id="6kxqg8SRKIHMtfkFayjp-386" value="" style="endArrow=classic;html=1;rounded=0;exitX=1;exitY=0.5;exitDx=0;exitDy=0;entryX=0;entryY=0.5;entryDx=0;entryDy=0;" parent="1" source="6kxqg8SRKIHMtfkFayjp-385" target="6kxqg8SRKIHMtfkFayjp-387" edge="1">
          <mxGeometry width="50" height="50" relative="1" as="geometry">
            <mxPoint x="135" y="430.24" as="sourcePoint" />
            <mxPoint x="185" y="320" as="targetPoint" />
          </mxGeometry>
        </mxCell>
        <mxCell id="6kxqg8SRKIHMtfkFayjp-387" value="" style="ellipse;whiteSpace=wrap;html=1;aspect=fixed;" parent="1" vertex="1">
          <mxGeometry x="125" y="350" width="40" height="40" as="geometry" />
        </mxCell>
        <mxCell id="6kxqg8SRKIHMtfkFayjp-388" value="" style="endArrow=classic;html=1;rounded=0;exitX=1;exitY=1;exitDx=0;exitDy=0;entryX=0;entryY=0.5;entryDx=0;entryDy=0;" parent="1" source="6kxqg8SRKIHMtfkFayjp-387" target="6kxqg8SRKIHMtfkFayjp-389" edge="1">
          <mxGeometry width="50" height="50" relative="1" as="geometry">
            <mxPoint x="229" y="286" as="sourcePoint" />
            <mxPoint x="280" y="230" as="targetPoint" />
          </mxGeometry>
        </mxCell>
        <mxCell id="6kxqg8SRKIHMtfkFayjp-389" value="" style="whiteSpace=wrap;html=1;" parent="1" vertex="1">
          <mxGeometry x="205" y="340" width="10" height="40" as="geometry" />
        </mxCell>
        <mxCell id="6kxqg8SRKIHMtfkFayjp-390" value="" style="endArrow=classic;html=1;rounded=0;exitX=1;exitY=0.5;exitDx=0;exitDy=0;entryX=0;entryY=0.5;entryDx=0;entryDy=0;" parent="1" source="6kxqg8SRKIHMtfkFayjp-389" target="6kxqg8SRKIHMtfkFayjp-391" edge="1">
          <mxGeometry width="50" height="50" relative="1" as="geometry">
            <mxPoint x="280" y="320" as="sourcePoint" />
            <mxPoint x="331" y="336" as="targetPoint" />
          </mxGeometry>
        </mxCell>
        <mxCell id="6kxqg8SRKIHMtfkFayjp-391" value="" style="ellipse;whiteSpace=wrap;html=1;aspect=fixed;" parent="1" vertex="1">
          <mxGeometry x="280" y="340" width="40" height="40" as="geometry" />
        </mxCell>
        <mxCell id="6kxqg8SRKIHMtfkFayjp-392" value="" style="endArrow=classic;html=1;rounded=0;exitX=1;exitY=0.5;exitDx=0;exitDy=0;entryX=0;entryY=0.5;entryDx=0;entryDy=0;" parent="1" source="6kxqg8SRKIHMtfkFayjp-391" target="6kxqg8SRKIHMtfkFayjp-393" edge="1">
          <mxGeometry width="50" height="50" relative="1" as="geometry">
            <mxPoint x="290" y="330" as="sourcePoint" />
            <mxPoint x="325" y="361" as="targetPoint" />
            <Array as="points" />
          </mxGeometry>
        </mxCell>
        <mxCell id="6kxqg8SRKIHMtfkFayjp-393" value="" style="whiteSpace=wrap;html=1;" parent="1" vertex="1">
          <mxGeometry x="375" y="330" width="10" height="40" as="geometry" />
        </mxCell>
        <mxCell id="6kxqg8SRKIHMtfkFayjp-394" value="" style="ellipse;whiteSpace=wrap;html=1;aspect=fixed;" parent="1" vertex="1">
          <mxGeometry x="235" y="265" width="40" height="40" as="geometry" />
        </mxCell>
        <mxCell id="6kxqg8SRKIHMtfkFayjp-395" value="" style="whiteSpace=wrap;html=1;gradientColor=none;fillColor=#000000;" parent="1" vertex="1">
          <mxGeometry x="290" y="275" width="10" height="40" as="geometry" />
        </mxCell>
        <mxCell id="6kxqg8SRKIHMtfkFayjp-396" value="" style="endArrow=classic;html=1;rounded=0;exitX=1;exitY=0.5;exitDx=0;exitDy=0;entryX=0;entryY=0.5;entryDx=0;entryDy=0;" parent="1" source="6kxqg8SRKIHMtfkFayjp-394" target="6kxqg8SRKIHMtfkFayjp-395" edge="1">
          <mxGeometry width="50" height="50" relative="1" as="geometry">
            <mxPoint x="385" y="176" as="sourcePoint" />
            <mxPoint x="449" y="140" as="targetPoint" />
          </mxGeometry>
        </mxCell>
        <mxCell id="6kxqg8SRKIHMtfkFayjp-397" value="" style="whiteSpace=wrap;html=1;" parent="1" vertex="1">
          <mxGeometry x="205" y="280" width="10" height="40" as="geometry" />
        </mxCell>
        <mxCell id="6kxqg8SRKIHMtfkFayjp-398" value="" style="endArrow=classic;html=1;rounded=0;exitX=1;exitY=0;exitDx=0;exitDy=0;entryX=0;entryY=0.5;entryDx=0;entryDy=0;" parent="1" source="6kxqg8SRKIHMtfkFayjp-387" target="6kxqg8SRKIHMtfkFayjp-397" edge="1">
          <mxGeometry width="50" height="50" relative="1" as="geometry">
            <mxPoint x="265" y="390" as="sourcePoint" />
            <mxPoint x="315" y="340" as="targetPoint" />
          </mxGeometry>
        </mxCell>
        <mxCell id="6kxqg8SRKIHMtfkFayjp-399" value="" style="endArrow=classic;html=1;rounded=0;exitX=1.062;exitY=0.39;exitDx=0;exitDy=0;entryX=0;entryY=0.5;entryDx=0;entryDy=0;exitPerimeter=0;" parent="1" source="6kxqg8SRKIHMtfkFayjp-397" target="6kxqg8SRKIHMtfkFayjp-394" edge="1">
          <mxGeometry width="50" height="50" relative="1" as="geometry">
            <mxPoint x="280" y="226" as="sourcePoint" />
            <mxPoint x="331" y="170" as="targetPoint" />
          </mxGeometry>
        </mxCell>
        <mxCell id="6kxqg8SRKIHMtfkFayjp-401" value="" style="whiteSpace=wrap;html=1;" parent="1" vertex="1">
          <mxGeometry x="115" y="270" width="10" height="40" as="geometry" />
        </mxCell>
        <mxCell id="6kxqg8SRKIHMtfkFayjp-402" value="20%" style="text;html=1;align=center;verticalAlign=middle;resizable=0;points=[];autosize=1;strokeColor=none;fillColor=none;" parent="1" vertex="1">
          <mxGeometry x="95" y="305" width="50" height="30" as="geometry" />
        </mxCell>
        <mxCell id="6kxqg8SRKIHMtfkFayjp-403" value="40%" style="text;html=1;align=center;verticalAlign=middle;resizable=0;points=[];autosize=1;strokeColor=none;fillColor=none;" parent="1" vertex="1">
          <mxGeometry x="185" y="315" width="50" height="30" as="geometry" />
        </mxCell>
        <mxCell id="6kxqg8SRKIHMtfkFayjp-404" value="60%" style="text;html=1;align=center;verticalAlign=middle;resizable=0;points=[];autosize=1;strokeColor=none;fillColor=none;" parent="1" vertex="1">
          <mxGeometry x="190" y="380" width="50" height="30" as="geometry" />
        </mxCell>
        <mxCell id="6kxqg8SRKIHMtfkFayjp-405" value="80%" style="text;html=1;align=center;verticalAlign=middle;resizable=0;points=[];autosize=1;strokeColor=none;fillColor=none;" parent="1" vertex="1">
          <mxGeometry x="265" y="310" width="50" height="30" as="geometry" />
        </mxCell>
        <mxCell id="6kxqg8SRKIHMtfkFayjp-406" value="" style="endArrow=classic;html=1;rounded=0;entryX=1;entryY=0.5;entryDx=0;entryDy=0;exitX=0;exitY=0.5;exitDx=0;exitDy=0;" parent="1" source="6kxqg8SRKIHMtfkFayjp-401" target="6kxqg8SRKIHMtfkFayjp-407" edge="1">
          <mxGeometry width="50" height="50" relative="1" as="geometry">
            <mxPoint x="75" y="340" as="sourcePoint" />
            <mxPoint x="125" y="290" as="targetPoint" />
          </mxGeometry>
        </mxCell>
        <mxCell id="6kxqg8SRKIHMtfkFayjp-407" value="" style="ellipse;whiteSpace=wrap;html=1;aspect=fixed;" parent="1" vertex="1">
          <mxGeometry x="35" y="290" width="40" height="40" as="geometry" />
        </mxCell>
        <mxCell id="6kxqg8SRKIHMtfkFayjp-408" value="" style="curved=1;endArrow=classic;html=1;rounded=0;entryX=0;entryY=0.25;entryDx=0;entryDy=0;exitX=0;exitY=0.5;exitDx=0;exitDy=0;" parent="1" source="6kxqg8SRKIHMtfkFayjp-407" target="6kxqg8SRKIHMtfkFayjp-409" edge="1">
          <mxGeometry width="50" height="50" relative="1" as="geometry">
            <mxPoint x="45" y="198" as="sourcePoint" />
            <mxPoint x="95" y="148" as="targetPoint" />
            <Array as="points">
              <mxPoint x="-15" y="331" />
              <mxPoint x="-25" y="341" />
            </Array>
          </mxGeometry>
        </mxCell>
        <mxCell id="6kxqg8SRKIHMtfkFayjp-409" value="" style="whiteSpace=wrap;html=1;" parent="1" vertex="1">
          <mxGeometry x="-5" y="345" width="10" height="40" as="geometry" />
        </mxCell>
        <mxCell id="6kxqg8SRKIHMtfkFayjp-410" value="30-60 min" style="text;html=1;align=center;verticalAlign=middle;resizable=0;points=[];autosize=1;strokeColor=none;fillColor=none;" parent="1" vertex="1">
          <mxGeometry x="-75" y="350" width="80" height="30" as="geometry" />
        </mxCell>
        <mxCell id="6kxqg8SRKIHMtfkFayjp-411" value="" style="endArrow=classic;html=1;rounded=0;entryX=0;entryY=0;entryDx=0;entryDy=0;exitX=1;exitY=0.5;exitDx=0;exitDy=0;" parent="1" source="6kxqg8SRKIHMtfkFayjp-409" target="lrRXcVhisEiBtLIxsdMu-27" edge="1">
          <mxGeometry width="50" height="50" relative="1" as="geometry">
            <mxPoint x="5" y="410" as="sourcePoint" />
            <mxPoint x="35" y="406" as="targetPoint" />
          </mxGeometry>
        </mxCell>
        <mxCell id="6kxqg8SRKIHMtfkFayjp-412" value="p = 2" style="text;html=1;align=center;verticalAlign=middle;whiteSpace=wrap;rounded=0;" parent="1" vertex="1">
          <mxGeometry x="355" y="364" width="60" height="30" as="geometry" />
        </mxCell>
        <mxCell id="6kxqg8SRKIHMtfkFayjp-413" value="" style="curved=1;endArrow=classic;html=1;rounded=0;entryX=0.5;entryY=0;entryDx=0;entryDy=0;exitX=1;exitY=0.5;exitDx=0;exitDy=0;" parent="1" source="6kxqg8SRKIHMtfkFayjp-393" target="lrRXcVhisEiBtLIxsdMu-94" edge="1">
          <mxGeometry width="50" height="50" relative="1" as="geometry">
            <mxPoint x="270" y="540" as="sourcePoint" />
            <mxPoint x="320" y="490" as="targetPoint" />
            <Array as="points">
              <mxPoint x="420" y="360" />
              <mxPoint x="470" y="360" />
            </Array>
          </mxGeometry>
        </mxCell>
        <mxCell id="r1Hy3LD09ry6QKwKVcJa-2" value="" style="curved=1;endArrow=classic;html=1;rounded=0;exitX=0.174;exitY=0;exitDx=0;exitDy=0;entryX=0;entryY=0.75;entryDx=0;entryDy=0;exitPerimeter=0;" parent="1" source="lrRXcVhisEiBtLIxsdMu-99" target="lrRXcVhisEiBtLIxsdMu-26" edge="1">
          <mxGeometry width="50" height="50" relative="1" as="geometry">
            <mxPoint x="426" y="490" as="sourcePoint" />
            <mxPoint x="410" y="440" as="targetPoint" />
            <Array as="points">
              <mxPoint x="360" y="440" />
            </Array>
          </mxGeometry>
        </mxCell>
        <mxCell id="r1Hy3LD09ry6QKwKVcJa-5" value="" style="curved=1;endArrow=classic;html=1;rounded=0;entryX=0;entryY=0.5;entryDx=0;entryDy=0;exitX=0.5;exitY=1;exitDx=0;exitDy=0;" parent="1" source="lrRXcVhisEiBtLIxsdMu-10" target="lrRXcVhisEiBtLIxsdMu-8" edge="1">
          <mxGeometry width="50" height="50" relative="1" as="geometry">
            <mxPoint x="-130" y="370" as="sourcePoint" />
            <mxPoint x="-80" y="420" as="targetPoint" />
            <Array as="points">
              <mxPoint x="-80" y="370" />
              <mxPoint x="-130" y="420" />
            </Array>
          </mxGeometry>
        </mxCell>
        <mxCell id="r1Hy3LD09ry6QKwKVcJa-6" value="" style="curved=1;endArrow=classic;html=1;rounded=0;entryX=0.5;entryY=0;entryDx=0;entryDy=0;" parent="1" target="lrRXcVhisEiBtLIxsdMu-68" edge="1">
          <mxGeometry width="50" height="50" relative="1" as="geometry">
            <mxPoint x="400" y="154" as="sourcePoint" />
            <mxPoint x="450" y="204" as="targetPoint" />
            <Array as="points">
              <mxPoint x="430" y="160" />
            </Array>
          </mxGeometry>
        </mxCell>
        <mxCell id="r1Hy3LD09ry6QKwKVcJa-8" value="" style="curved=1;endArrow=classic;html=1;rounded=0;" parent="1" edge="1">
          <mxGeometry width="50" height="50" relative="1" as="geometry">
            <mxPoint x="400" y="-110" as="sourcePoint" />
            <mxPoint x="430" y="10" as="targetPoint" />
            <Array as="points">
              <mxPoint x="450" y="-110" />
              <mxPoint x="460" y="-60" />
            </Array>
          </mxGeometry>
        </mxCell>
        <mxCell id="r1Hy3LD09ry6QKwKVcJa-12" value="" style="curved=1;endArrow=classic;html=1;rounded=0;exitX=0;exitY=0;exitDx=0;exitDy=0;" parent="1" source="6kxqg8SRKIHMtfkFayjp-312" edge="1">
          <mxGeometry width="50" height="50" relative="1" as="geometry">
            <mxPoint x="220" y="-200" as="sourcePoint" />
            <mxPoint x="170" y="-150" as="targetPoint" />
            <Array as="points">
              <mxPoint x="240" y="-190" />
              <mxPoint x="220" y="-150" />
            </Array>
          </mxGeometry>
        </mxCell>
        <mxCell id="r1Hy3LD09ry6QKwKVcJa-13" value="" style="curved=1;endArrow=classic;html=1;rounded=0;exitX=0.5;exitY=1;exitDx=0;exitDy=0;entryX=0;entryY=0.5;entryDx=0;entryDy=0;" parent="1" source="lrRXcVhisEiBtLIxsdMu-72" target="lrRXcVhisEiBtLIxsdMu-77" edge="1">
          <mxGeometry width="50" height="50" relative="1" as="geometry">
            <mxPoint x="550" y="245" as="sourcePoint" />
            <mxPoint x="600" y="295" as="targetPoint" />
            <Array as="points">
              <mxPoint x="540" y="260" />
              <mxPoint x="540" y="290" />
              <mxPoint x="550" y="295" />
            </Array>
          </mxGeometry>
        </mxCell>
        <mxCell id="r1Hy3LD09ry6QKwKVcJa-14" value="" style="curved=1;endArrow=classic;html=1;rounded=0;entryX=0;entryY=0.75;entryDx=0;entryDy=0;exitX=0.5;exitY=0;exitDx=0;exitDy=0;" parent="1" source="lrRXcVhisEiBtLIxsdMu-31" target="6kxqg8SRKIHMtfkFayjp-315" edge="1">
          <mxGeometry width="50" height="50" relative="1" as="geometry">
            <mxPoint x="360" y="-50" as="sourcePoint" />
            <mxPoint x="410" y="-100" as="targetPoint" />
            <Array as="points">
              <mxPoint x="380" y="-80" />
              <mxPoint x="360" y="-100" />
            </Array>
          </mxGeometry>
        </mxCell>
        <mxCell id="0rdqoa6raJLv3J3M8zcH-1" value="" style="curved=1;endArrow=classic;html=1;rounded=0;exitX=0;exitY=0;exitDx=0;exitDy=0;" parent="1" edge="1">
          <mxGeometry width="50" height="50" relative="1" as="geometry">
            <mxPoint x="286" y="60" as="sourcePoint" />
            <mxPoint x="170" y="79" as="targetPoint" />
            <Array as="points">
              <mxPoint x="240" y="39" />
              <mxPoint x="220" y="79" />
            </Array>
          </mxGeometry>
        </mxCell>
        <mxCell id="0rdqoa6raJLv3J3M8zcH-2" value="" style="curved=1;endArrow=classic;html=1;rounded=0;exitX=0;exitY=0;exitDx=0;exitDy=0;" parent="1" edge="1">
          <mxGeometry width="50" height="50" relative="1" as="geometry">
            <mxPoint x="241" y="271" as="sourcePoint" />
            <mxPoint x="125" y="290" as="targetPoint" />
            <Array as="points">
              <mxPoint x="195" y="250" />
              <mxPoint x="175" y="290" />
            </Array>
          </mxGeometry>
        </mxCell>
        <mxCell id="t2_GjcE9Qt5i0jLupK3t-3" value="" style="endArrow=classic;html=1;rounded=0;exitX=0.5;exitY=0;exitDx=0;exitDy=0;" edge="1" parent="1" source="lrRXcVhisEiBtLIxsdMu-18">
          <mxGeometry width="50" height="50" relative="1" as="geometry">
            <mxPoint x="80" y="10" as="sourcePoint" />
            <mxPoint x="130" y="-40" as="targetPoint" />
          </mxGeometry>
        </mxCell>
        <mxCell id="t2_GjcE9Qt5i0jLupK3t-4" value="A" style="text;html=1;align=center;verticalAlign=middle;resizable=0;points=[];autosize=1;strokeColor=none;fillColor=none;fontStyle=1" vertex="1" parent="1">
          <mxGeometry x="-165" y="179" width="30" height="30" as="geometry" />
        </mxCell>
        <mxCell id="t2_GjcE9Qt5i0jLupK3t-7" value="B" style="text;html=1;align=center;verticalAlign=middle;resizable=0;points=[];autosize=1;strokeColor=none;fillColor=none;fontStyle=1" vertex="1" parent="1">
          <mxGeometry x="-55" y="179" width="30" height="30" as="geometry" />
        </mxCell>
        <mxCell id="t2_GjcE9Qt5i0jLupK3t-13" value="D" style="text;html=1;align=center;verticalAlign=middle;resizable=0;points=[];autosize=1;strokeColor=none;fillColor=none;fontStyle=1" vertex="1" parent="1">
          <mxGeometry x="85" y="179" width="30" height="30" as="geometry" />
        </mxCell>
        <mxCell id="t2_GjcE9Qt5i0jLupK3t-14" value="P" style="text;html=1;align=center;verticalAlign=middle;resizable=0;points=[];autosize=1;strokeColor=none;fillColor=none;fontColor=#7F00FF;fontStyle=1" vertex="1" parent="1">
          <mxGeometry x="430" y="179" width="30" height="30" as="geometry" />
        </mxCell>
        <mxCell id="t2_GjcE9Qt5i0jLupK3t-15" value="Q" style="text;html=1;align=center;verticalAlign=middle;resizable=0;points=[];autosize=1;strokeColor=none;fillColor=none;fontColor=#7F00FF;fontStyle=1" vertex="1" parent="1">
          <mxGeometry x="540" y="179" width="30" height="30" as="geometry" />
        </mxCell>
        <mxCell id="t2_GjcE9Qt5i0jLupK3t-16" value="R" style="text;html=1;align=center;verticalAlign=middle;resizable=0;points=[];autosize=1;strokeColor=none;fillColor=none;fontColor=#7F00FF;fontStyle=1" vertex="1" parent="1">
          <mxGeometry x="650" y="179" width="30" height="30" as="geometry" />
        </mxCell>
        <mxCell id="t2_GjcE9Qt5i0jLupK3t-17" value="S" style="text;html=1;align=center;verticalAlign=middle;resizable=0;points=[];autosize=1;strokeColor=none;fillColor=none;fontColor=#7F00FF;fontStyle=1" vertex="1" parent="1">
          <mxGeometry x="760" y="179" width="30" height="30" as="geometry" />
        </mxCell>
        <mxCell id="t2_GjcE9Qt5i0jLupK3t-18" value="E" style="text;html=1;align=center;verticalAlign=middle;resizable=0;points=[];autosize=1;strokeColor=none;fillColor=none;fontStyle=1" vertex="1" parent="1">
          <mxGeometry x="35" y="394" width="30" height="30" as="geometry" />
        </mxCell>
        <mxCell id="t2_GjcE9Qt5i0jLupK3t-19" value="U" style="text;html=1;align=center;verticalAlign=middle;resizable=0;points=[];autosize=1;strokeColor=none;fillColor=none;fontColor=#FF8000;fontStyle=1" vertex="1" parent="1">
          <mxGeometry x="485" y="380" width="30" height="30" as="geometry" />
        </mxCell>
        <mxCell id="t2_GjcE9Qt5i0jLupK3t-20" value="V" style="text;html=1;align=center;verticalAlign=middle;resizable=0;points=[];autosize=1;strokeColor=none;fillColor=none;fontColor=#FF8000;fontStyle=1" vertex="1" parent="1">
          <mxGeometry x="595" y="380" width="30" height="30" as="geometry" />
        </mxCell>
        <mxCell id="t2_GjcE9Qt5i0jLupK3t-21" value="T" style="text;html=1;align=center;verticalAlign=middle;resizable=0;points=[];autosize=1;strokeColor=none;fillColor=none;fontColor=#FF8000;fontStyle=1" vertex="1" parent="1">
          <mxGeometry x="440" y="460" width="30" height="30" as="geometry" />
        </mxCell>
        <mxCell id="t2_GjcE9Qt5i0jLupK3t-22" value="O" style="text;html=1;align=center;verticalAlign=middle;resizable=0;points=[];autosize=1;strokeColor=none;fillColor=none;fontColor=#7F00FF;fontStyle=1" vertex="1" parent="1">
          <mxGeometry x="385" y="260" width="30" height="30" as="geometry" />
        </mxCell>
        <mxCell id="t2_GjcE9Qt5i0jLupK3t-23" value="K" style="text;html=1;align=center;verticalAlign=middle;resizable=0;points=[];autosize=1;strokeColor=none;fillColor=none;fontColor=#FF0000;fontStyle=1" vertex="1" parent="1">
          <mxGeometry x="430" y="-10" width="30" height="30" as="geometry" />
        </mxCell>
        <mxCell id="t2_GjcE9Qt5i0jLupK3t-24" value="C" style="text;html=1;align=center;verticalAlign=middle;resizable=0;points=[];autosize=1;strokeColor=none;fillColor=none;fontStyle=1" vertex="1" parent="1">
          <mxGeometry x="100" y="-10" width="30" height="30" as="geometry" />
        </mxCell>
        <mxCell id="t2_GjcE9Qt5i0jLupK3t-25" value="I" style="text;html=1;align=center;verticalAlign=middle;resizable=0;points=[];autosize=1;strokeColor=none;fillColor=none;fontColor=#0000FF;fontStyle=1" vertex="1" parent="1">
          <mxGeometry x="100" y="-130" width="30" height="30" as="geometry" />
        </mxCell>
        <mxCell id="t2_GjcE9Qt5i0jLupK3t-26" value="G" style="text;html=1;align=center;verticalAlign=middle;resizable=0;points=[];autosize=1;strokeColor=none;fillColor=none;fontColor=#0000FF;fontStyle=1" vertex="1" parent="1">
          <mxGeometry x="305" y="-190" width="30" height="30" as="geometry" />
        </mxCell>
        <mxCell id="t2_GjcE9Qt5i0jLupK3t-27" value="H" style="text;html=1;align=center;verticalAlign=middle;resizable=0;points=[];autosize=1;strokeColor=none;fillColor=none;fontColor=#0000FF;fontStyle=1" vertex="1" parent="1">
          <mxGeometry x="300" y="-120" width="30" height="30" as="geometry" />
        </mxCell>
        <mxCell id="t2_GjcE9Qt5i0jLupK3t-28" value="F" style="text;html=1;align=center;verticalAlign=middle;resizable=0;points=[];autosize=1;strokeColor=none;fillColor=none;fontColor=#0000FF;fontStyle=1" vertex="1" parent="1">
          <mxGeometry x="155" y="-105" width="30" height="30" as="geometry" />
        </mxCell>
        <mxCell id="t2_GjcE9Qt5i0jLupK3t-29" value="L" style="text;html=1;align=center;verticalAlign=middle;resizable=0;points=[];autosize=1;strokeColor=none;fillColor=none;fontColor=#FF0000;fontStyle=1" vertex="1" parent="1">
          <mxGeometry x="540" y="-10" width="30" height="30" as="geometry" />
        </mxCell>
        <mxCell id="t2_GjcE9Qt5i0jLupK3t-30" value="M" style="text;html=1;align=center;verticalAlign=middle;resizable=0;points=[];autosize=1;strokeColor=none;fillColor=none;fontColor=#FF0000;fontStyle=1" vertex="1" parent="1">
          <mxGeometry x="650" y="-50" width="30" height="30" as="geometry" />
        </mxCell>
        <mxCell id="t2_GjcE9Qt5i0jLupK3t-31" value="N" style="text;html=1;align=center;verticalAlign=middle;resizable=0;points=[];autosize=1;strokeColor=none;fillColor=none;fontColor=#FF0000;fontStyle=1" vertex="1" parent="1">
          <mxGeometry x="760" y="-50" width="30" height="30" as="geometry" />
        </mxCell>
        <mxCell id="t2_GjcE9Qt5i0jLupK3t-32" value="J" style="text;html=1;align=center;verticalAlign=middle;resizable=0;points=[];autosize=1;strokeColor=none;fillColor=none;fontColor=#FF0000;fontStyle=1" vertex="1" parent="1">
          <mxGeometry x="385" y="-85" width="30" height="30" as="geometry" />
        </mxCell>
        <mxCell id="t2_GjcE9Qt5i0jLupK3t-34" value="&lt;font style=&quot;font-size: 15px;&quot;&gt;A - Pokud zÃ¡kaznÃ­k zavolÃ¡ mimo pracovnÃ­ dobu odchÃ¡zÃ­ ze systÃ©mu&lt;/font&gt;&lt;div&gt;&lt;font style=&quot;font-size: 15px;&quot;&gt;B - UrÄenÃ­ typu zÃ¡kaznÃ­ka&lt;br&gt;C - PrvnÄ volajÃ­cÃ­ zÃ¡kaznÃ­ci&lt;br&gt;D - ZavedenÃ­ zÃ¡kaznÃ­ci&lt;br&gt;E - VÃ¡Å¾enÃ­ zÃ¡kaznÃ­ci&lt;br&gt;&lt;br&gt;&lt;font color=&quot;#0000ff&quot;&gt;RozhodovÃ¡nÃ­ zÃ¡kaznÃ­ka pÅi plÃ©m obsazenÃ­ operÃ¡torÅ¯ (popsÃ¡no pouze jednou - u vÅ¡ech typÅ¯ zÃ¡kaznÃ­kÅ¯ identickÃ©)&lt;br&gt;F - ZÃ¡kaznÃ­k se rozhoduje zda se zaÅadÃ­ do fronty&amp;nbsp;&lt;br&gt;G - ZÃ¡kaznÃ­k se rozhoduje zda to &quot;vzdÃ¡&quot; a nebo poÄkÃ¡ a zavolÃ¡ znova&lt;br&gt;I - ZÃ¡kaznÃ­k ÄekÃ¡ neÅ¾ zavolÃ¡ znova&lt;/font&gt;&lt;/font&gt;&lt;/div&gt;&lt;div&gt;&lt;font style=&quot;font-size: 15px;&quot;&gt;&lt;br&gt;&lt;font color=&quot;#ff0000&quot;&gt;Obsluha prvnÄ volajÃ­cÃ­ch zÃ¡kaznÃ­kÅ¯&lt;br&gt;J - OperÃ¡toÅi nejniÅ¾Å¡Ã­ ÃºrovnÄ&lt;br&gt;K - UpÅesnÄnÃ­ poÅ¾adavku&lt;br&gt;L - OperÃ¡tor rozhodne, zda je potÅeba eskalace poÅ¾adavku&lt;br&gt;M - ÅeÅ¡enÃ­ poÅ¾adavku&lt;br&gt;N - ZÃ¡kaznÃ­k opouÅ¡tÃ­ systÃ©m&lt;/font&gt;&lt;br&gt;&lt;br&gt;&lt;font color=&quot;#7f00ff&quot;&gt;Obsluha zavedenÃ½ch zÃ¡kaznÃ­kÅ¯&lt;br&gt;O - OperÃ¡toÅi stÅednÃ­ ÃºrovnÄ&lt;br&gt;P -&amp;nbsp;&lt;span style=&quot;background-color: initial;&quot;&gt;UpÅesnÄnÃ­ poÅ¾adavku poÅ¾adavku&lt;/span&gt;&lt;/font&gt;&lt;/font&gt;&lt;/div&gt;&lt;div&gt;&lt;font style=&quot;font-size: 15px;&quot;&gt;&lt;span style=&quot;background-color: initial;&quot;&gt;&lt;font color=&quot;#7f00ff&quot;&gt;Q -&amp;nbsp;&lt;/font&gt;&lt;/span&gt;&lt;span style=&quot;background-color: initial;&quot;&gt;&lt;font style=&quot;&quot; color=&quot;#7f00ff&quot;&gt;OperÃ¡tor rozhodne, zda je potÅeba eskalace poÅ¾adavku&lt;br&gt;R - ÅeÅ¡enÃ­ poÅ¾adavku&lt;br&gt;S - ZÃ¡kaznÃ­k opouÅ¡tÃ­ systÃ©m&lt;/font&gt;&lt;br&gt;&lt;br&gt;&lt;font style=&quot;&quot; color=&quot;#ff8000&quot;&gt;Obsluha vÃ¡Å¾enÃ½ch zÃ¡kaznÃ­kÅ¯&lt;br&gt;T - OperÃ¡toÅi nejvyÅ¡Å¡Ã­ ÃºrovnÄ&lt;br&gt;U - ÅeÅ¡enÃ­ poÅ¾adavku&lt;br&gt;V - ZÃ¡kaznÃ­k opouÅ¡tÃ­ systÃ©m&lt;/font&gt;&lt;/span&gt;&lt;/font&gt;&lt;/div&gt;" style="text;html=1;align=left;verticalAlign=middle;whiteSpace=wrap;rounded=0;" vertex="1" parent="1">
          <mxGeometry x="890" y="-10" width="690" height="420" as="geometry" />
        </mxCell>
      </root>
    </mxGraphModel>
  </diagram>
</mxfile>
